<?xml version="1.0" encoding="utf-8" standalone="no"?>
<!DOCTYPE svg PUBLIC "-//W3C//DTD SVG 1.1//EN"
  "http://www.w3.org/Graphics/SVG/1.1/DTD/svg11.dtd">
<!-- Created with matplotlib (http://matplotlib.org/) -->
<svg height="288pt" version="1.1" viewBox="0 0 504 288" width="504pt" xmlns="http://www.w3.org/2000/svg" xmlns:xlink="http://www.w3.org/1999/xlink">
 <defs>
  <style type="text/css">
*{stroke-linecap:butt;stroke-linejoin:round;}
  </style>
 </defs>
 <g id="figure_1">
  <g id="patch_1">
   <path d="M 0 288 
L 504 288 
L 504 0 
L 0 0 
z
" style="fill:#f0f0f0;"/>
  </g>
  <g id="axes_1">
   <g id="patch_2">
    <path d="M 50.4 239.04 
L 473.76 239.04 
L 473.76 57.6 
L 50.4 57.6 
z
" style="fill:#f0f0f0;"/>
   </g>
   <g id="matplotlib.axis_1">
    <g id="xtick_1">
     <g id="line2d_1">
      <path clip-path="url(#p4cfa06ca4b)" d="M 73.08 239.04 
L 73.08 57.6 
" style="fill:none;stroke:#cbcbcb;"/>
     </g>
     <g id="line2d_2"/>
     <g id="text_1">
      <!-- AAA -->
      <defs>
       <path d="M 34.1875 63.1875 
L 20.796875 26.90625 
L 47.609375 26.90625 
z
M 28.609375 72.90625 
L 39.796875 72.90625 
L 67.578125 0 
L 57.328125 0 
L 50.6875 18.703125 
L 17.828125 18.703125 
L 11.1875 0 
L 0.78125 0 
z
" id="DejaVuSans-41"/>
      </defs>
      <g style="fill:#303030;" transform="translate(75.563438 261.015312)rotate(-90)scale(0.09 -0.09)">
       <use xlink:href="#DejaVuSans-41"/>
       <use x="68.439453" xlink:href="#DejaVuSans-41"/>
       <use x="136.878906" xlink:href="#DejaVuSans-41"/>
      </g>
     </g>
    </g>
    <g id="xtick_2">
     <g id="line2d_3">
      <path clip-path="url(#p4cfa06ca4b)" d="M 110.88 239.04 
L 110.88 57.6 
" style="fill:none;stroke:#cbcbcb;"/>
     </g>
     <g id="line2d_4"/>
     <g id="text_2">
      <!-- AA -->
      <g style="fill:#303030;" transform="translate(113.363438 254.855937)rotate(-90)scale(0.09 -0.09)">
       <use xlink:href="#DejaVuSans-41"/>
       <use x="68.439453" xlink:href="#DejaVuSans-41"/>
      </g>
     </g>
    </g>
    <g id="xtick_3">
     <g id="line2d_5">
      <path clip-path="url(#p4cfa06ca4b)" d="M 148.68 239.04 
L 148.68 57.6 
" style="fill:none;stroke:#cbcbcb;"/>
     </g>
     <g id="line2d_6"/>
     <g id="text_3">
      <!-- AA- -->
      <defs>
       <path d="M 4.890625 31.390625 
L 31.203125 31.390625 
L 31.203125 23.390625 
L 4.890625 23.390625 
z
" id="DejaVuSans-2d"/>
      </defs>
      <g style="fill:#303030;" transform="translate(151.163438 258.100156)rotate(-90)scale(0.09 -0.09)">
       <use xlink:href="#DejaVuSans-41"/>
       <use x="68.439453" xlink:href="#DejaVuSans-41"/>
       <use x="136.816406" xlink:href="#DejaVuSans-2d"/>
      </g>
     </g>
    </g>
    <g id="xtick_4">
     <g id="line2d_7">
      <path clip-path="url(#p4cfa06ca4b)" d="M 186.48 239.04 
L 186.48 57.6 
" style="fill:none;stroke:#cbcbcb;"/>
     </g>
     <g id="line2d_8"/>
     <g id="text_4">
      <!-- A+ -->
      <defs>
       <path d="M 46 62.703125 
L 46 35.5 
L 73.1875 35.5 
L 73.1875 27.203125 
L 46 27.203125 
L 46 0 
L 37.796875 0 
L 37.796875 27.203125 
L 10.59375 27.203125 
L 10.59375 35.5 
L 37.796875 35.5 
L 37.796875 62.703125 
z
" id="DejaVuSans-2b"/>
      </defs>
      <g style="fill:#303030;" transform="translate(188.963438 256.238281)rotate(-90)scale(0.09 -0.09)">
       <use xlink:href="#DejaVuSans-41"/>
       <use x="68.408203" xlink:href="#DejaVuSans-2b"/>
      </g>
     </g>
    </g>
    <g id="xtick_5">
     <g id="line2d_9">
      <path clip-path="url(#p4cfa06ca4b)" d="M 224.28 239.04 
L 224.28 57.6 
" style="fill:none;stroke:#cbcbcb;"/>
     </g>
     <g id="line2d_10"/>
     <g id="text_5">
      <!-- A -->
      <g style="fill:#303030;" transform="translate(226.763438 248.696562)rotate(-90)scale(0.09 -0.09)">
       <use xlink:href="#DejaVuSans-41"/>
      </g>
     </g>
    </g>
    <g id="xtick_6">
     <g id="line2d_11">
      <path clip-path="url(#p4cfa06ca4b)" d="M 262.08 239.04 
L 262.08 57.6 
" style="fill:none;stroke:#cbcbcb;"/>
     </g>
     <g id="line2d_12"/>
     <g id="text_6">
      <!-- A- -->
      <g style="fill:#303030;" transform="translate(264.563438 251.940781)rotate(-90)scale(0.09 -0.09)">
       <use xlink:href="#DejaVuSans-41"/>
       <use x="68.376953" xlink:href="#DejaVuSans-2d"/>
      </g>
     </g>
    </g>
    <g id="xtick_7">
     <g id="line2d_13">
      <path clip-path="url(#p4cfa06ca4b)" d="M 299.88 239.04 
L 299.88 57.6 
" style="fill:none;stroke:#cbcbcb;"/>
     </g>
     <g id="line2d_14"/>
     <g id="text_7">
      <!-- BBB+ -->
      <defs>
       <path d="M 19.671875 34.8125 
L 19.671875 8.109375 
L 35.5 8.109375 
Q 43.453125 8.109375 47.28125 11.40625 
Q 51.125 14.703125 51.125 21.484375 
Q 51.125 28.328125 47.28125 31.5625 
Q 43.453125 34.8125 35.5 34.8125 
z
M 19.671875 64.796875 
L 19.671875 42.828125 
L 34.28125 42.828125 
Q 41.5 42.828125 45.03125 45.53125 
Q 48.578125 48.25 48.578125 53.8125 
Q 48.578125 59.328125 45.03125 62.0625 
Q 41.5 64.796875 34.28125 64.796875 
z
M 9.8125 72.90625 
L 35.015625 72.90625 
Q 46.296875 72.90625 52.390625 68.21875 
Q 58.5 63.53125 58.5 54.890625 
Q 58.5 48.1875 55.375 44.234375 
Q 52.25 40.28125 46.1875 39.3125 
Q 53.46875 37.75 57.5 32.78125 
Q 61.53125 27.828125 61.53125 20.40625 
Q 61.53125 10.640625 54.890625 5.3125 
Q 48.25 0 35.984375 0 
L 9.8125 0 
z
" id="DejaVuSans-42"/>
      </defs>
      <g style="fill:#303030;" transform="translate(302.363437 268.60625)rotate(-90)scale(0.09 -0.09)">
       <use xlink:href="#DejaVuSans-42"/>
       <use x="68.603516" xlink:href="#DejaVuSans-42"/>
       <use x="137.207031" xlink:href="#DejaVuSans-42"/>
       <use x="205.810547" xlink:href="#DejaVuSans-2b"/>
      </g>
     </g>
    </g>
    <g id="xtick_8">
     <g id="line2d_15">
      <path clip-path="url(#p4cfa06ca4b)" d="M 337.68 239.04 
L 337.68 57.6 
" style="fill:none;stroke:#cbcbcb;"/>
     </g>
     <g id="line2d_16"/>
     <g id="text_8">
      <!-- BBB -->
      <g style="fill:#303030;" transform="translate(340.163438 261.064531)rotate(-90)scale(0.09 -0.09)">
       <use xlink:href="#DejaVuSans-42"/>
       <use x="68.603516" xlink:href="#DejaVuSans-42"/>
       <use x="137.207031" xlink:href="#DejaVuSans-42"/>
      </g>
     </g>
    </g>
    <g id="xtick_9">
     <g id="line2d_17">
      <path clip-path="url(#p4cfa06ca4b)" d="M 375.48 239.04 
L 375.48 57.6 
" style="fill:none;stroke:#cbcbcb;"/>
     </g>
     <g id="line2d_18"/>
     <g id="text_9">
      <!-- BBB- -->
      <g style="fill:#303030;" transform="translate(377.963437 264.311562)rotate(-90)scale(0.09 -0.09)">
       <use xlink:href="#DejaVuSans-42"/>
       <use x="68.603516" xlink:href="#DejaVuSans-42"/>
       <use x="137.207031" xlink:href="#DejaVuSans-42"/>
       <use x="205.810547" xlink:href="#DejaVuSans-2d"/>
      </g>
     </g>
    </g>
    <g id="xtick_10">
     <g id="line2d_19">
      <path clip-path="url(#p4cfa06ca4b)" d="M 413.28 239.04 
L 413.28 57.6 
" style="fill:none;stroke:#cbcbcb;"/>
     </g>
     <g id="line2d_20"/>
     <g id="text_10">
      <!-- BB+ -->
      <g style="fill:#303030;" transform="translate(415.763438 262.431406)rotate(-90)scale(0.09 -0.09)">
       <use xlink:href="#DejaVuSans-42"/>
       <use x="68.603516" xlink:href="#DejaVuSans-42"/>
       <use x="137.207031" xlink:href="#DejaVuSans-2b"/>
      </g>
     </g>
    </g>
    <g id="xtick_11">
     <g id="line2d_21">
      <path clip-path="url(#p4cfa06ca4b)" d="M 451.08 239.04 
L 451.08 57.6 
" style="fill:none;stroke:#cbcbcb;"/>
     </g>
     <g id="line2d_22"/>
     <g id="text_11">
      <!-- BB -->
      <g style="fill:#303030;" transform="translate(453.563438 254.889687)rotate(-90)scale(0.09 -0.09)">
       <use xlink:href="#DejaVuSans-42"/>
       <use x="68.603516" xlink:href="#DejaVuSans-42"/>
      </g>
     </g>
    </g>
    <g id="text_12">
     <!-- Corporate credit rating -->
     <defs>
      <path d="M 56 22.90625 
L 64.5 20.40625 
Q 62.09375 10.90625 54.890625 5.046875 
Q 47.703125 -0.796875 37.09375 -0.796875 
Q 24 -0.796875 14.75 8.59375 
Q 5.5 18 5.5 35 
Q 5.5 52 14.75 61.390625 
Q 24 70.796875 37.09375 70.796875 
Q 47.703125 70.796875 54.890625 64.9375 
Q 62.09375 59.09375 64.5 49.59375 
L 56 47.09375 
Q 51 62.40625 37.09375 62.40625 
Q 27.09375 62.40625 20.84375 55.296875 
Q 14.59375 48.203125 14.59375 35 
Q 14.59375 21.796875 20.84375 14.6875 
Q 27.09375 7.59375 37.09375 7.59375 
Q 51 7.59375 56 22.90625 
z
" id="Apercu-43"/>
      <path d="M 12 6.796875 
Q 5.40625 14.5 5.40625 25.203125 
Q 5.40625 35.90625 12.046875 43.546875 
Q 18.703125 51.203125 29.59375 51.203125 
Q 40.5 51.203125 47.140625 43.546875 
Q 53.796875 35.90625 53.796875 25.203125 
Q 53.796875 14.5 47.140625 6.84375 
Q 40.5 -0.796875 29.59375 -0.796875 
Q 18.703125 -0.796875 12 6.796875 
z
M 18.09375 38.09375 
Q 14 32.703125 14 25.203125 
Q 14 17.703125 18.140625 12.25 
Q 22.296875 6.796875 29.59375 6.796875 
Q 36.90625 6.796875 41.046875 12.25 
Q 45.203125 17.703125 45.203125 25.203125 
Q 45.203125 32.703125 41.046875 38.140625 
Q 36.90625 43.59375 29.59375 43.59375 
Q 22.296875 43.59375 18.09375 38.09375 
z
" id="Apercu-6f"/>
      <path d="M 39.296875 49.703125 
L 37.59375 42.203125 
Q 34.796875 43.59375 31.703125 43.59375 
Q 26 43.59375 21.796875 37.140625 
Q 17.59375 30.703125 17.59375 19.09375 
L 17.59375 0 
L 9.203125 0 
L 9.203125 50.40625 
L 17.59375 50.40625 
L 17.59375 41.796875 
Q 19.796875 46 24 48.59375 
Q 28.203125 51.203125 32.40625 51.203125 
Q 36.5 51.203125 39.296875 49.703125 
z
" id="Apercu-72"/>
      <path d="M 32.296875 -0.796875 
Q 27.796875 -0.796875 23.390625 1.390625 
Q 19 3.59375 17.59375 6 
L 17.59375 -20.40625 
L 9.203125 -20.40625 
L 9.203125 50.40625 
L 17.59375 50.40625 
L 17.59375 44.203125 
Q 19.5 47.09375 23.640625 49.140625 
Q 27.796875 51.203125 32.296875 51.203125 
Q 43.09375 51.203125 48.890625 44.046875 
Q 54.703125 36.90625 54.703125 25.203125 
Q 54.703125 13.5 48.890625 6.34375 
Q 43.09375 -0.796875 32.296875 -0.796875 
z
M 31.5 43.59375 
Q 24.703125 43.59375 20.796875 38.5 
Q 16.90625 33.40625 16.90625 25.203125 
Q 16.90625 17 20.796875 11.890625 
Q 24.703125 6.796875 31.5 6.796875 
Q 38.09375 6.796875 42.09375 11.890625 
Q 46.09375 17 46.09375 25.203125 
Q 46.09375 33.40625 42.09375 38.5 
Q 38.09375 43.59375 31.5 43.59375 
z
" id="Apercu-70"/>
      <path d="M 14.203125 14.5 
Q 14.203125 10.90625 16.34375 8.84375 
Q 18.5 6.796875 22.5 6.796875 
Q 28.203125 6.796875 32.390625 10.546875 
Q 36.59375 14.296875 36.59375 22.203125 
L 36.59375 23.40625 
L 27.59375 23.40625 
Q 21.203125 23.40625 17.703125 21.09375 
Q 14.203125 18.796875 14.203125 14.5 
z
M 45 32.203125 
L 45 0 
L 38.40625 0 
L 37 7.09375 
Q 31.5 -0.796875 21.203125 -0.796875 
Q 14.40625 -0.796875 10 3 
Q 5.59375 6.796875 5.59375 14.5 
Q 5.59375 22.5 11.6875 26.75 
Q 17.796875 31 28.40625 31 
L 36.59375 31 
L 36.59375 33.203125 
Q 36.59375 43.59375 25.59375 43.59375 
Q 21.59375 43.59375 18.75 41.5 
Q 15.90625 39.40625 15.09375 35.703125 
L 7.703125 37.40625 
Q 8.703125 43.796875 13.59375 47.5 
Q 18.5 51.203125 25.59375 51.203125 
Q 34.40625 51.203125 39.703125 46.5 
Q 45 41.796875 45 32.203125 
z
" id="Apercu-61"/>
      <path d="M 2.5 42.796875 
L 2.5 50.40625 
L 11.203125 50.40625 
L 11.203125 65.5 
L 19.59375 70.796875 
L 19.59375 50.40625 
L 32.796875 50.40625 
L 32.796875 42.796875 
L 19.59375 42.796875 
L 19.59375 15.09375 
Q 19.59375 11.09375 21.34375 8.9375 
Q 23.09375 6.796875 26.296875 6.796875 
Q 29.59375 6.796875 32 8.40625 
L 34 1.09375 
Q 30.703125 -0.796875 25.796875 -0.796875 
Q 19.09375 -0.796875 15.140625 3.390625 
Q 11.203125 7.59375 11.203125 15.796875 
L 11.203125 42.796875 
z
" id="Apercu-74"/>
      <path d="M 51 27.296875 
L 51 23.40625 
L 14 23.40625 
Q 14.40625 16 18.046875 11.390625 
Q 21.703125 6.796875 28.203125 6.796875 
Q 33.5 6.796875 36.75 9.140625 
Q 40 11.5 42.203125 16.40625 
L 49.59375 13.203125 
Q 46.09375 5.796875 41.046875 2.5 
Q 36 -0.796875 28.203125 -0.796875 
Q 17.296875 -0.796875 11.34375 6.75 
Q 5.40625 14.296875 5.40625 25.1875 
Q 5.40625 36.09375 11.34375 43.640625 
Q 17.296875 51.203125 28.203125 51.203125 
Q 38.90625 51.203125 44.953125 44.25 
Q 51 37.296875 51 27.296875 
z
M 28.203125 43.59375 
Q 22.59375 43.59375 19.140625 40.1875 
Q 15.703125 36.796875 14.5 31 
L 42.203125 31 
Q 41 36.703125 37.5 40.140625 
Q 34 43.59375 28.203125 43.59375 
z
" id="Apercu-65"/>
      <path id="Apercu-20"/>
      <path d="M 42.09375 16.09375 
L 49.40625 13.09375 
Q 43.296875 -0.796875 28.296875 -0.796875 
Q 17.296875 -0.796875 11.34375 6.75 
Q 5.40625 14.296875 5.40625 25.1875 
Q 5.40625 36.09375 11.34375 43.640625 
Q 17.296875 51.203125 28.296875 51.203125 
Q 43.296875 51.203125 49.40625 37.296875 
L 42.09375 34.296875 
Q 38.09375 43.59375 28.296875 43.59375 
Q 21.296875 43.59375 17.640625 38.4375 
Q 14 33.296875 14 25.1875 
Q 14 17.09375 17.640625 11.9375 
Q 21.296875 6.796875 28.296875 6.796875 
Q 38.09375 6.796875 42.09375 16.09375 
z
" id="Apercu-63"/>
      <path d="M 27.796875 51.203125 
Q 32.296875 51.203125 36.6875 49 
Q 41.09375 46.796875 42.5 44.40625 
L 42.5 70.796875 
L 50.90625 70.796875 
L 50.90625 0 
L 42.5 0 
L 42.5 6.203125 
Q 40.59375 3.296875 36.4375 1.25 
Q 32.296875 -0.796875 27.796875 -0.796875 
Q 17 -0.796875 11.203125 6.34375 
Q 5.40625 13.5 5.40625 25.203125 
Q 5.40625 36.90625 11.203125 44.046875 
Q 17 51.203125 27.796875 51.203125 
z
M 28.59375 6.796875 
Q 35.40625 6.796875 39.296875 11.890625 
Q 43.203125 17 43.203125 25.203125 
Q 43.203125 33.40625 39.296875 38.5 
Q 35.40625 43.59375 28.59375 43.59375 
Q 22 43.59375 18 38.5 
Q 14 33.40625 14 25.203125 
Q 14 17 18 11.890625 
Q 22 6.796875 28.59375 6.796875 
z
" id="Apercu-64"/>
      <path d="M 9.296875 50.40625 
L 17.703125 50.40625 
L 17.703125 0 
L 9.296875 0 
z
M 7.203125 64.40625 
Q 7.203125 67.09375 9 68.9375 
Q 10.796875 70.796875 13.5 70.796875 
Q 16.203125 70.796875 18 68.9375 
Q 19.796875 67.09375 19.796875 64.40625 
Q 19.796875 61.796875 18 60 
Q 16.203125 58.203125 13.5 58.203125 
Q 10.796875 58.203125 9 60 
Q 7.203125 61.796875 7.203125 64.40625 
z
" id="Apercu-69"/>
      <path d="M 49.09375 35.5 
L 49.09375 0 
L 40.703125 0 
L 40.703125 33.296875 
Q 40.703125 43.59375 32 43.59375 
Q 26.09375 43.59375 21.84375 37.390625 
Q 17.59375 31.203125 17.59375 21.09375 
L 17.59375 0 
L 9.203125 0 
L 9.203125 50.40625 
L 17.59375 50.40625 
L 17.59375 41.09375 
Q 23.296875 51.203125 34.296875 51.203125 
Q 41.203125 51.203125 45.140625 47.09375 
Q 49.09375 43 49.09375 35.5 
z
" id="Apercu-6e"/>
      <path d="M 9 34.203125 
Q 9 41.796875 14 46.4375 
Q 19 51.09375 26.59375 51.09375 
Q 31.5 51.09375 35.703125 48.90625 
L 44.703125 54 
L 48.5 47.09375 
L 41.703125 43.296875 
Q 44.203125 39.40625 44.203125 34.203125 
Q 44.203125 26.5 39.203125 21.953125 
Q 34.203125 17.40625 26.59375 17.40625 
Q 21.59375 17.40625 17.90625 19.203125 
Q 14.59375 17.59375 14.59375 14.296875 
Q 14.59375 10.09375 20.296875 10.09375 
L 32.203125 10.09375 
Q 39.40625 10.09375 43.703125 6.5 
Q 48 2.90625 48 -3.796875 
Q 48 -12.59375 42 -16.890625 
Q 36 -21.203125 26.703125 -21.203125 
Q 17 -21.203125 11.140625 -16.796875 
Q 5.296875 -12.40625 5.296875 -4.59375 
Q 5.296875 1.90625 10 5.90625 
Q 6.59375 8.796875 6.59375 13.90625 
Q 6.59375 20.09375 12.703125 23.203125 
Q 9 27.703125 9 34.203125 
z
M 30.90625 2.90625 
L 20.703125 2.90625 
Q 19.203125 2.90625 17 3.09375 
Q 13.703125 0.5 13.703125 -4.296875 
Q 13.703125 -8.59375 17.046875 -11.1875 
Q 20.40625 -13.796875 26.703125 -13.796875 
Q 33 -13.796875 36.203125 -11.25 
Q 39.40625 -8.703125 39.40625 -4.59375 
Q 39.40625 2.90625 30.90625 2.90625 
z
M 19.90625 41.296875 
Q 17.203125 38.703125 17.203125 34.203125 
Q 17.203125 29.703125 19.890625 27.140625 
Q 22.59375 24.59375 26.59375 24.59375 
Q 30.59375 24.59375 33.296875 27.140625 
Q 36 29.703125 36 34.203125 
Q 36 38.703125 33.296875 41.296875 
Q 30.59375 43.90625 26.59375 43.90625 
Q 22.59375 43.90625 19.90625 41.296875 
z
" id="Apercu-67"/>
     </defs>
     <g style="opacity:0.75;" transform="translate(208.518281 279.685937)scale(0.1 -0.1)">
      <use xlink:href="#Apercu-43"/>
      <use x="68.799988" xlink:href="#Apercu-6f"/>
      <use x="127.999985" xlink:href="#Apercu-72"/>
      <use x="169.299973" xlink:href="#Apercu-70"/>
      <use x="229.399963" xlink:href="#Apercu-6f"/>
      <use x="288.59996" xlink:href="#Apercu-72"/>
      <use x="329.884323" xlink:href="#Apercu-61"/>
      <use x="381.684311" xlink:href="#Apercu-74"/>
      <use x="419.484299" xlink:href="#Apercu-65"/>
      <use x="475.484283" xlink:href="#Apercu-20"/>
      <use x="502.284271" xlink:href="#Apercu-63"/>
      <use x="556.084259" xlink:href="#Apercu-72"/>
      <use x="597.384247" xlink:href="#Apercu-65"/>
      <use x="653.384232" xlink:href="#Apercu-64"/>
      <use x="713.452972" xlink:href="#Apercu-69"/>
      <use x="740.452957" xlink:href="#Apercu-74"/>
      <use x="778.252945" xlink:href="#Apercu-20"/>
      <use x="805.052933" xlink:href="#Apercu-72"/>
      <use x="846.337296" xlink:href="#Apercu-61"/>
      <use x="898.137283" xlink:href="#Apercu-74"/>
      <use x="935.937271" xlink:href="#Apercu-69"/>
      <use x="962.890381" xlink:href="#Apercu-6e"/>
      <use x="1020.574753" xlink:href="#Apercu-67"/>
     </g>
    </g>
   </g>
   <g id="matplotlib.axis_2">
    <g id="ytick_1">
     <g id="line2d_23">
      <path clip-path="url(#p4cfa06ca4b)" d="M 50.4 239.04 
L 473.76 239.04 
" style="fill:none;stroke:#cbcbcb;"/>
     </g>
     <g id="line2d_24"/>
     <g id="text_13">
      <!-- 0.0 -->
      <defs>
       <path d="M 31.78125 66.40625 
Q 24.171875 66.40625 20.328125 58.90625 
Q 16.5 51.421875 16.5 36.375 
Q 16.5 21.390625 20.328125 13.890625 
Q 24.171875 6.390625 31.78125 6.390625 
Q 39.453125 6.390625 43.28125 13.890625 
Q 47.125 21.390625 47.125 36.375 
Q 47.125 51.421875 43.28125 58.90625 
Q 39.453125 66.40625 31.78125 66.40625 
z
M 31.78125 74.21875 
Q 44.046875 74.21875 50.515625 64.515625 
Q 56.984375 54.828125 56.984375 36.375 
Q 56.984375 17.96875 50.515625 8.265625 
Q 44.046875 -1.421875 31.78125 -1.421875 
Q 19.53125 -1.421875 13.0625 8.265625 
Q 6.59375 17.96875 6.59375 36.375 
Q 6.59375 54.828125 13.0625 64.515625 
Q 19.53125 74.21875 31.78125 74.21875 
z
" id="DejaVuSans-30"/>
       <path d="M 10.6875 12.40625 
L 21 12.40625 
L 21 0 
L 10.6875 0 
z
" id="DejaVuSans-2e"/>
      </defs>
      <g style="fill:#303030;" transform="translate(32.587188 242.459297)scale(0.09 -0.09)">
       <use xlink:href="#DejaVuSans-30"/>
       <use x="63.623047" xlink:href="#DejaVuSans-2e"/>
       <use x="95.410156" xlink:href="#DejaVuSans-30"/>
      </g>
     </g>
    </g>
    <g id="ytick_2">
     <g id="line2d_25">
      <path clip-path="url(#p4cfa06ca4b)" d="M 50.4 210.24 
L 473.76 210.24 
" style="fill:none;stroke:#cbcbcb;"/>
     </g>
     <g id="line2d_26"/>
     <g id="text_14">
      <!-- 0.5 -->
      <defs>
       <path d="M 10.796875 72.90625 
L 49.515625 72.90625 
L 49.515625 64.59375 
L 19.828125 64.59375 
L 19.828125 46.734375 
Q 21.96875 47.46875 24.109375 47.828125 
Q 26.265625 48.1875 28.421875 48.1875 
Q 40.625 48.1875 47.75 41.5 
Q 54.890625 34.8125 54.890625 23.390625 
Q 54.890625 11.625 47.5625 5.09375 
Q 40.234375 -1.421875 26.90625 -1.421875 
Q 22.3125 -1.421875 17.546875 -0.640625 
Q 12.796875 0.140625 7.71875 1.703125 
L 7.71875 11.625 
Q 12.109375 9.234375 16.796875 8.0625 
Q 21.484375 6.890625 26.703125 6.890625 
Q 35.15625 6.890625 40.078125 11.328125 
Q 45.015625 15.765625 45.015625 23.390625 
Q 45.015625 31 40.078125 35.4375 
Q 35.15625 39.890625 26.703125 39.890625 
Q 22.75 39.890625 18.8125 39.015625 
Q 14.890625 38.140625 10.796875 36.28125 
z
" id="DejaVuSans-35"/>
      </defs>
      <g style="fill:#303030;" transform="translate(32.587188 213.659297)scale(0.09 -0.09)">
       <use xlink:href="#DejaVuSans-30"/>
       <use x="63.623047" xlink:href="#DejaVuSans-2e"/>
       <use x="95.410156" xlink:href="#DejaVuSans-35"/>
      </g>
     </g>
    </g>
    <g id="ytick_3">
     <g id="line2d_27">
      <path clip-path="url(#p4cfa06ca4b)" d="M 50.4 181.44 
L 473.76 181.44 
" style="fill:none;stroke:#cbcbcb;"/>
     </g>
     <g id="line2d_28"/>
     <g id="text_15">
      <!-- 1.0 -->
      <defs>
       <path d="M 12.40625 8.296875 
L 28.515625 8.296875 
L 28.515625 63.921875 
L 10.984375 60.40625 
L 10.984375 69.390625 
L 28.421875 72.90625 
L 38.28125 72.90625 
L 38.28125 8.296875 
L 54.390625 8.296875 
L 54.390625 0 
L 12.40625 0 
z
" id="DejaVuSans-31"/>
      </defs>
      <g style="fill:#303030;" transform="translate(32.587188 184.859297)scale(0.09 -0.09)">
       <use xlink:href="#DejaVuSans-31"/>
       <use x="63.623047" xlink:href="#DejaVuSans-2e"/>
       <use x="95.410156" xlink:href="#DejaVuSans-30"/>
      </g>
     </g>
    </g>
    <g id="ytick_4">
     <g id="line2d_29">
      <path clip-path="url(#p4cfa06ca4b)" d="M 50.4 152.64 
L 473.76 152.64 
" style="fill:none;stroke:#cbcbcb;"/>
     </g>
     <g id="line2d_30"/>
     <g id="text_16">
      <!-- 1.5 -->
      <g style="fill:#303030;" transform="translate(32.587188 156.059297)scale(0.09 -0.09)">
       <use xlink:href="#DejaVuSans-31"/>
       <use x="63.623047" xlink:href="#DejaVuSans-2e"/>
       <use x="95.410156" xlink:href="#DejaVuSans-35"/>
      </g>
     </g>
    </g>
    <g id="ytick_5">
     <g id="line2d_31">
      <path clip-path="url(#p4cfa06ca4b)" d="M 50.4 123.84 
L 473.76 123.84 
" style="fill:none;stroke:#cbcbcb;"/>
     </g>
     <g id="line2d_32"/>
     <g id="text_17">
      <!-- 2.0 -->
      <defs>
       <path d="M 19.1875 8.296875 
L 53.609375 8.296875 
L 53.609375 0 
L 7.328125 0 
L 7.328125 8.296875 
Q 12.9375 14.109375 22.625 23.890625 
Q 32.328125 33.6875 34.8125 36.53125 
Q 39.546875 41.84375 41.421875 45.53125 
Q 43.3125 49.21875 43.3125 52.78125 
Q 43.3125 58.59375 39.234375 62.25 
Q 35.15625 65.921875 28.609375 65.921875 
Q 23.96875 65.921875 18.8125 64.3125 
Q 13.671875 62.703125 7.8125 59.421875 
L 7.8125 69.390625 
Q 13.765625 71.78125 18.9375 73 
Q 24.125 74.21875 28.421875 74.21875 
Q 39.75 74.21875 46.484375 68.546875 
Q 53.21875 62.890625 53.21875 53.421875 
Q 53.21875 48.921875 51.53125 44.890625 
Q 49.859375 40.875 45.40625 35.40625 
Q 44.1875 33.984375 37.640625 27.21875 
Q 31.109375 20.453125 19.1875 8.296875 
z
" id="DejaVuSans-32"/>
      </defs>
      <g style="fill:#303030;" transform="translate(32.587188 127.259297)scale(0.09 -0.09)">
       <use xlink:href="#DejaVuSans-32"/>
       <use x="63.623047" xlink:href="#DejaVuSans-2e"/>
       <use x="95.410156" xlink:href="#DejaVuSans-30"/>
      </g>
     </g>
    </g>
    <g id="ytick_6">
     <g id="line2d_33">
      <path clip-path="url(#p4cfa06ca4b)" d="M 50.4 95.04 
L 473.76 95.04 
" style="fill:none;stroke:#cbcbcb;"/>
     </g>
     <g id="line2d_34"/>
     <g id="text_18">
      <!-- 2.5 -->
      <g style="fill:#303030;" transform="translate(32.587188 98.459297)scale(0.09 -0.09)">
       <use xlink:href="#DejaVuSans-32"/>
       <use x="63.623047" xlink:href="#DejaVuSans-2e"/>
       <use x="95.410156" xlink:href="#DejaVuSans-35"/>
      </g>
     </g>
    </g>
    <g id="ytick_7">
     <g id="line2d_35">
      <path clip-path="url(#p4cfa06ca4b)" d="M 50.4 66.24 
L 473.76 66.24 
" style="fill:none;stroke:#cbcbcb;"/>
     </g>
     <g id="line2d_36"/>
     <g id="text_19">
      <!-- 3.0 -->
      <defs>
       <path d="M 40.578125 39.3125 
Q 47.65625 37.796875 51.625 33 
Q 55.609375 28.21875 55.609375 21.1875 
Q 55.609375 10.40625 48.1875 4.484375 
Q 40.765625 -1.421875 27.09375 -1.421875 
Q 22.515625 -1.421875 17.65625 -0.515625 
Q 12.796875 0.390625 7.625 2.203125 
L 7.625 11.71875 
Q 11.71875 9.328125 16.59375 8.109375 
Q 21.484375 6.890625 26.8125 6.890625 
Q 36.078125 6.890625 40.9375 10.546875 
Q 45.796875 14.203125 45.796875 21.1875 
Q 45.796875 27.640625 41.28125 31.265625 
Q 36.765625 34.90625 28.71875 34.90625 
L 20.21875 34.90625 
L 20.21875 43.015625 
L 29.109375 43.015625 
Q 36.375 43.015625 40.234375 45.921875 
Q 44.09375 48.828125 44.09375 54.296875 
Q 44.09375 59.90625 40.109375 62.90625 
Q 36.140625 65.921875 28.71875 65.921875 
Q 24.65625 65.921875 20.015625 65.03125 
Q 15.375 64.15625 9.8125 62.3125 
L 9.8125 71.09375 
Q 15.4375 72.65625 20.34375 73.4375 
Q 25.25 74.21875 29.59375 74.21875 
Q 40.828125 74.21875 47.359375 69.109375 
Q 53.90625 64.015625 53.90625 55.328125 
Q 53.90625 49.265625 50.4375 45.09375 
Q 46.96875 40.921875 40.578125 39.3125 
z
" id="DejaVuSans-33"/>
      </defs>
      <g style="fill:#303030;" transform="translate(32.587188 69.659297)scale(0.09 -0.09)">
       <use xlink:href="#DejaVuSans-33"/>
       <use x="63.623047" xlink:href="#DejaVuSans-2e"/>
       <use x="95.410156" xlink:href="#DejaVuSans-30"/>
      </g>
     </g>
    </g>
    <g id="text_20">
     <!-- Number of companies -->
     <defs>
      <path d="M 51.59375 70 
L 60.40625 70 
L 60.40625 0 
L 50.09375 0 
L 18.5 54.5 
L 18.5 0 
L 9.703125 0 
L 9.703125 70 
L 20 70 
L 51.59375 15.296875 
z
" id="Apercu-4e"/>
      <path d="M 8.59375 14.90625 
L 8.59375 50.40625 
L 17 50.40625 
L 17 17.09375 
Q 17 6.796875 25.703125 6.796875 
Q 31.59375 6.796875 35.84375 13 
Q 40.09375 19.203125 40.09375 29.296875 
L 40.09375 50.40625 
L 48.5 50.40625 
L 48.5 0 
L 40.09375 0 
L 40.09375 9.296875 
Q 34.40625 -0.796875 23.40625 -0.796875 
Q 16.5 -0.796875 12.546875 3.296875 
Q 8.59375 7.40625 8.59375 14.90625 
z
" id="Apercu-75"/>
      <path d="M 77.40625 35.5 
L 77.40625 0 
L 69 0 
L 69 33.703125 
Q 69 43.59375 60.90625 43.59375 
Q 55.203125 43.59375 51.34375 37.4375 
Q 47.5 31.296875 47.5 20.703125 
L 47.5 0 
L 39.09375 0 
L 39.09375 33.703125 
Q 39.09375 43.59375 31 43.59375 
Q 25.296875 43.59375 21.4375 37.4375 
Q 17.59375 31.296875 17.59375 20.703125 
L 17.59375 0 
L 9.203125 0 
L 9.203125 50.40625 
L 17.59375 50.40625 
L 17.59375 41.09375 
Q 22.703125 51.203125 33.296875 51.203125 
Q 38.5 51.203125 42.046875 48.453125 
Q 45.59375 45.703125 46.796875 40.703125 
Q 52.40625 51.203125 63.203125 51.203125 
Q 70 51.203125 73.703125 47.046875 
Q 77.40625 42.90625 77.40625 35.5 
z
" id="Apercu-6d"/>
      <path d="M 32.296875 -0.796875 
Q 27.796875 -0.796875 23.640625 1.25 
Q 19.5 3.296875 17.59375 6.203125 
L 17.59375 0 
L 9.203125 0 
L 9.203125 70.796875 
L 17.59375 70.796875 
L 17.59375 44.40625 
Q 19 46.796875 23.390625 49 
Q 27.796875 51.203125 32.296875 51.203125 
Q 43.09375 51.203125 48.890625 44.046875 
Q 54.703125 36.90625 54.703125 25.203125 
Q 54.703125 13.5 48.890625 6.34375 
Q 43.09375 -0.796875 32.296875 -0.796875 
z
M 31.5 43.59375 
Q 24.703125 43.59375 20.796875 38.5 
Q 16.90625 33.40625 16.90625 25.203125 
Q 16.90625 17 20.796875 11.890625 
Q 24.703125 6.796875 31.5 6.796875 
Q 38.09375 6.796875 42.09375 11.890625 
Q 46.09375 17 46.09375 25.203125 
Q 46.09375 33.40625 42.09375 38.5 
Q 38.09375 43.59375 31.5 43.59375 
z
" id="Apercu-62"/>
      <path d="M 4.703125 42.796875 
L 4.703125 50.40625 
L 11.90625 50.40625 
L 11.90625 53.703125 
Q 11.90625 62.203125 16.15625 66.5 
Q 20.40625 70.796875 28.203125 70.796875 
Q 32.59375 70.796875 35.40625 69.203125 
L 33.703125 61.796875 
Q 30.90625 63.203125 28.09375 63.203125 
Q 24 63.203125 22.140625 60.890625 
Q 20.296875 58.59375 20.296875 53.703125 
L 20.296875 50.40625 
L 31.90625 50.40625 
L 31.90625 42.796875 
L 20.296875 42.796875 
L 20.296875 0 
L 11.90625 0 
L 11.90625 42.796875 
z
" id="Apercu-66"/>
      <path d="M 23.59375 51.203125 
Q 32.796875 51.203125 38.203125 43.5 
L 32.5 38.59375 
Q 27.90625 43.59375 23.296875 43.59375 
Q 20.703125 43.59375 18.953125 41.890625 
Q 17.203125 40.203125 17.203125 37.203125 
Q 17.203125 34.703125 19.59375 32.890625 
Q 22 31.09375 25.453125 29.75 
Q 28.90625 28.40625 32.34375 26.796875 
Q 35.796875 25.203125 38.1875 22.25 
Q 40.59375 19.296875 40.59375 15.203125 
Q 40.59375 7.703125 36.09375 3.453125 
Q 31.59375 -0.796875 23.90625 -0.796875 
Q 16.796875 -0.796875 12.046875 3.09375 
Q 7.296875 7 5.09375 12.796875 
L 12.203125 16.703125 
Q 16.203125 6.796875 23.90625 6.796875 
Q 32 6.796875 32 14.703125 
Q 32 17.203125 29.59375 19 
Q 27.203125 20.796875 23.796875 22.046875 
Q 20.40625 23.296875 17 24.890625 
Q 13.59375 26.5 11.1875 29.640625 
Q 8.796875 32.796875 8.796875 37.296875 
Q 8.796875 43.296875 12.84375 47.25 
Q 16.90625 51.203125 23.59375 51.203125 
z
" id="Apercu-73"/>
     </defs>
     <g style="opacity:0.75;" transform="translate(26.546563 199.236406)rotate(-90)scale(0.1 -0.1)">
      <use xlink:href="#Apercu-4e"/>
      <use x="70.068741" xlink:href="#Apercu-75"/>
      <use x="127.753113" xlink:href="#Apercu-6d"/>
      <use x="213.937469" xlink:href="#Apercu-62"/>
      <use x="274.03746" xlink:href="#Apercu-65"/>
      <use x="330.02182" xlink:href="#Apercu-72"/>
      <use x="371.321808" xlink:href="#Apercu-20"/>
      <use x="398.121796" xlink:href="#Apercu-6f"/>
      <use x="457.321793" xlink:href="#Apercu-66"/>
      <use x="493.721786" xlink:href="#Apercu-20"/>
      <use x="520.521774" xlink:href="#Apercu-63"/>
      <use x="574.321762" xlink:href="#Apercu-6f"/>
      <use x="633.506134" xlink:href="#Apercu-6d"/>
      <use x="719.674866" xlink:href="#Apercu-70"/>
      <use x="779.774857" xlink:href="#Apercu-61"/>
      <use x="831.559219" xlink:href="#Apercu-6e"/>
      <use x="889.243591" xlink:href="#Apercu-69"/>
      <use x="916.243576" xlink:href="#Apercu-65"/>
      <use x="972.243561" xlink:href="#Apercu-73"/>
     </g>
    </g>
   </g>
   <g id="patch_3">
    <path clip-path="url(#p4cfa06ca4b)" d="M 59.85 239.04 
L 86.31 239.04 
L 86.31 239.04 
L 59.85 239.04 
z
" style="fill:#008fd5;"/>
   </g>
   <g id="patch_4">
    <path clip-path="url(#p4cfa06ca4b)" d="M 97.65 239.04 
L 124.11 239.04 
L 124.11 239.04 
L 97.65 239.04 
z
" style="fill:#008fd5;"/>
   </g>
   <g id="patch_5">
    <path clip-path="url(#p4cfa06ca4b)" d="M 135.45 239.04 
L 161.91 239.04 
L 161.91 239.04 
L 135.45 239.04 
z
" style="fill:#008fd5;"/>
   </g>
   <g id="patch_6">
    <path clip-path="url(#p4cfa06ca4b)" d="M 173.25 239.04 
L 199.71 239.04 
L 199.71 239.04 
L 173.25 239.04 
z
" style="fill:#008fd5;"/>
   </g>
   <g id="patch_7">
    <path clip-path="url(#p4cfa06ca4b)" d="M 211.05 239.04 
L 237.51 239.04 
L 237.51 181.44 
L 211.05 181.44 
z
" style="fill:#008fd5;"/>
   </g>
   <g id="patch_8">
    <path clip-path="url(#p4cfa06ca4b)" d="M 248.85 239.04 
L 275.31 239.04 
L 275.31 239.04 
L 248.85 239.04 
z
" style="fill:#008fd5;"/>
   </g>
   <g id="patch_9">
    <path clip-path="url(#p4cfa06ca4b)" d="M 286.65 239.04 
L 313.11 239.04 
L 313.11 181.44 
L 286.65 181.44 
z
" style="fill:#008fd5;"/>
   </g>
   <g id="patch_10">
    <path clip-path="url(#p4cfa06ca4b)" d="M 324.45 239.04 
L 350.91 239.04 
L 350.91 181.44 
L 324.45 181.44 
z
" style="fill:#008fd5;"/>
   </g>
   <g id="patch_11">
    <path clip-path="url(#p4cfa06ca4b)" d="M 362.25 239.04 
L 388.71 239.04 
L 388.71 239.04 
L 362.25 239.04 
z
" style="fill:#008fd5;"/>
   </g>
   <g id="patch_12">
    <path clip-path="url(#p4cfa06ca4b)" d="M 400.05 239.04 
L 426.51 239.04 
L 426.51 66.24 
L 400.05 66.24 
z
" style="fill:#008fd5;"/>
   </g>
   <g id="patch_13">
    <path clip-path="url(#p4cfa06ca4b)" d="M 437.85 239.04 
L 464.31 239.04 
L 464.31 239.04 
L 437.85 239.04 
z
" style="fill:#008fd5;"/>
   </g>
   <g id="patch_14">
    <path d="M 50.4 239.04 
L 50.4 57.6 
" style="fill:none;stroke:#f0f0f0;stroke-linecap:square;stroke-linejoin:miter;stroke-width:3;"/>
   </g>
   <g id="patch_15">
    <path d="M 473.76 239.04 
L 473.76 57.6 
" style="fill:none;stroke:#f0f0f0;stroke-linecap:square;stroke-linejoin:miter;stroke-width:3;"/>
   </g>
   <g id="patch_16">
    <path d="M 50.4 239.04 
L 473.76 239.04 
" style="fill:none;stroke:#f0f0f0;stroke-linecap:square;stroke-linejoin:miter;stroke-width:3;"/>
   </g>
   <g id="patch_17">
    <path d="M 50.4 57.6 
L 473.76 57.6 
" style="fill:none;stroke:#f0f0f0;stroke-linecap:square;stroke-linejoin:miter;stroke-width:3;"/>
   </g>
   <g id="text_21">
    <!-- Distribution of Investments -->
    <defs>
     <path d="M 9.40625 70 
L 9.40625 0 
L 30 0 
C 46.796875 0 62.203125 11.40625 62.203125 35 
C 62.203125 58.59375 46.796875 70 30 70 
z
M 26.796875 59.59375 
C 39 59.59375 51 54.09375 51 35 
C 51 15.90625 39 10.40625 26.796875 10.40625 
L 20.40625 10.40625 
L 20.40625 59.59375 
z
" id="ApercuPro-Medium-44"/>
     <path d="M 6.09375 64.59375 
C 6.09375 60.59375 9.203125 57.5 13.296875 57.5 
C 17.40625 57.5 20.5 60.59375 20.5 64.59375 
C 20.5 68.59375 17.40625 71.90625 13.296875 71.90625 
C 9.203125 71.90625 6.09375 68.59375 6.09375 64.59375 
z
M 8.09375 50.40625 
L 8.09375 0 
L 18.5 0 
L 18.5 50.40625 
z
" id="ApercuPro-Medium-69"/>
     <path d="M 23.40625 51.203125 
C 14.296875 51.203125 7.90625 44.703125 7.90625 36.90625 
C 7.90625 29.203125 12.90625 25.5 18.703125 23.09375 
C 24.59375 20.59375 30.703125 19.40625 30.703125 15 
C 30.703125 10.40625 27.90625 8.40625 23.90625 8.40625 
C 18.296875 8.40625 14.796875 13 12.796875 17.5 
L 4 12.703125 
C 6.59375 6.40625 13.09375 -0.796875 23.5 -0.796875 
C 34.296875 -0.796875 41 6.5 41 15.203125 
C 41 24.203125 33.703125 27.203125 26.90625 29.796875 
C 21.703125 31.796875 17.90625 33.40625 17.90625 37 
C 17.90625 40.296875 20.296875 42 22.90625 42 
C 26.09375 42 29.203125 40.59375 31.703125 37.40625 
L 38.296875 43.203125 
C 35.09375 48.203125 29.5 51.203125 23.40625 51.203125 
z
" id="ApercuPro-Medium-73"/>
     <path d="M 2.09375 41.203125 
L 10.5 41.203125 
L 10.5 17.203125 
C 10.5 4.796875 17.5 -0.796875 27 -0.796875 
C 29.796875 -0.796875 32.40625 -0.296875 35.09375 1 
L 32.40625 9.796875 
C 30.59375 8.703125 29.40625 8.40625 27.59375 8.40625 
C 23 8.40625 20.90625 10.90625 20.90625 16.59375 
L 20.90625 41.203125 
L 34 41.203125 
L 34 50.40625 
L 20.90625 50.40625 
L 20.90625 70.796875 
L 10.5 64.296875 
L 10.5 50.40625 
L 2.09375 50.40625 
z
" id="ApercuPro-Medium-74"/>
     <path d="M 19 0 
L 19 18.703125 
C 19 34.59375 25.90625 42 32.59375 42 
C 34.703125 42 36.90625 41.5 38.5 40.5 
L 40.296875 50 
C 38.796875 50.59375 36.59375 51.203125 33.90625 51.203125 
C 28.5 51.203125 22.5 48 19 42 
L 19 50.40625 
L 8.59375 50.40625 
L 8.59375 0 
z
" id="ApercuPro-Medium-72"/>
     <path d="M 55.203125 25.203125 
C 55.203125 40.796875 47.59375 51.203125 32.5 51.203125 
C 27.5 51.203125 21.296875 48.09375 19 44.796875 
L 19 70.796875 
L 8.59375 70.796875 
L 8.59375 0 
L 19 0 
L 19 5.796875 
C 20.703125 2.90625 26.09375 -0.796875 32.703125 -0.796875 
C 47.59375 -0.796875 55.203125 9.09375 55.203125 25.203125 
z
M 44.203125 25.203125 
C 44.203125 14.796875 38.796875 8.40625 31.296875 8.40625 
C 23.796875 8.40625 18.40625 14.796875 18.40625 25.203125 
C 18.40625 35.59375 23.796875 42 31.296875 42 
C 38.796875 42 44.203125 35.59375 44.203125 25.203125 
z
" id="ApercuPro-Medium-62"/>
     <path d="M 49.40625 0 
L 49.40625 50.40625 
L 39 50.40625 
L 39 30 
C 39 16.09375 32.59375 8.40625 26.09375 8.40625 
C 21.40625 8.40625 18.296875 10.796875 18.296875 17.59375 
L 18.296875 50.40625 
L 7.90625 50.40625 
L 7.90625 14.296875 
C 7.90625 4.5 13.90625 -0.796875 22.703125 -0.796875 
C 29.40625 -0.796875 35.40625 2.59375 39 8.59375 
L 39 0 
z
" id="ApercuPro-Medium-75"/>
     <path d="M 4.90625 25.203125 
C 4.90625 11 14.09375 -0.796875 29.703125 -0.796875 
C 45.296875 -0.796875 54.5 11 54.5 25.203125 
C 54.5 39.40625 45.296875 51.203125 29.703125 51.203125 
C 14.09375 51.203125 4.90625 39.40625 4.90625 25.203125 
z
M 15.90625 25.203125 
C 15.90625 33.703125 20.59375 42 29.703125 42 
C 38.796875 42 43.5 33.703125 43.5 25.203125 
C 43.5 16.703125 38.796875 8.40625 29.703125 8.40625 
C 20.59375 8.40625 15.90625 16.703125 15.90625 25.203125 
z
" id="ApercuPro-Medium-6f"/>
     <path d="M 8.59375 50.40625 
L 8.59375 0 
L 19 0 
L 19 20.40625 
C 19 34.296875 25.40625 42 31.90625 42 
C 36.59375 42 39.703125 39.59375 39.703125 32.796875 
L 39.703125 0 
L 50.09375 0 
L 50.09375 36.09375 
C 50.09375 45.90625 44.09375 51.203125 35.296875 51.203125 
C 28.59375 51.203125 22.59375 47.796875 19 41.796875 
L 19 50.40625 
z
" id="ApercuPro-Medium-6e"/>
     <path id="ApercuPro-Medium-20"/>
     <path d="M 3.796875 41.203125 
L 10.296875 41.203125 
L 10.296875 0 
L 20.703125 0 
L 20.703125 41.203125 
L 31.796875 41.203125 
L 31.796875 50.40625 
L 20.703125 50.40625 
L 20.703125 53.703125 
C 20.703125 58.90625 22.90625 61.59375 27.5 61.59375 
C 29.40625 61.59375 31.296875 61.296875 33.40625 60.203125 
L 35.5 69 
C 33.59375 70 30.59375 70.796875 27.203125 70.796875 
C 17 70.796875 10.296875 65.296875 10.296875 53 
L 10.296875 50.40625 
L 3.796875 50.40625 
z
" id="ApercuPro-Medium-66"/>
     <path d="M 9.40625 0 
L 20.40625 0 
L 20.40625 70 
L 9.40625 70 
z
" id="ApercuPro-Medium-49"/>
     <path d="M 1.203125 50.40625 
L 17.90625 0 
L 27.703125 0 
L 44.40625 50.40625 
L 33.796875 50.40625 
L 22.796875 14.203125 
L 11.796875 50.40625 
z
" id="ApercuPro-Medium-76"/>
     <path d="M 28.40625 42 
C 35.90625 42 39.703125 36.59375 40.59375 31 
L 16.09375 31 
C 17.203125 37.296875 21.5 42 28.40625 42 
z
M 51.59375 26.796875 
C 51.59375 38.09375 44.5 51.203125 28.40625 51.203125 
C 11.796875 51.203125 4.90625 37.203125 4.90625 25.203125 
C 4.90625 13.203125 11.796875 -0.796875 28.40625 -0.796875 
C 39.90625 -0.796875 45.59375 3.90625 50.5 13.40625 
L 41.59375 16.90625 
C 39 11.40625 33.796875 8.40625 28.40625 8.40625 
C 20.203125 8.40625 15.90625 14.90625 15.90625 22.296875 
L 51.59375 22.296875 
z
" id="ApercuPro-Medium-65"/>
     <path d="M 8.59375 50.40625 
L 8.59375 0 
L 19 0 
L 19 19.09375 
C 19 34.09375 24.5 42 30.796875 42 
C 35.203125 42 38.203125 39.296875 38.203125 33.796875 
L 38.203125 0 
L 48.59375 0 
L 48.59375 20.203125 
C 48.59375 34.09375 54.203125 42 60.40625 42 
C 64.796875 42 67.796875 39.296875 67.796875 33.796875 
L 67.796875 0 
L 78.203125 0 
L 78.203125 36.09375 
C 78.203125 44.90625 73 51.203125 63.796875 51.203125 
C 57.296875 51.203125 51.59375 47.40625 48.09375 40.796875 
C 46.59375 47.09375 41 51.203125 34.203125 51.203125 
C 28.09375 51.203125 23.09375 48.09375 19 41.796875 
L 19 50.40625 
z
" id="ApercuPro-Medium-6d"/>
    </defs>
    <g style="opacity:0.75;" transform="translate(27.4 28.8)scale(0.28 -0.28)">
     <use xlink:href="#ApercuPro-Medium-44"/>
     <use x="67.284363" xlink:href="#ApercuPro-Medium-69"/>
     <use x="93.853104" xlink:href="#ApercuPro-Medium-73"/>
     <use x="138.853088" xlink:href="#ApercuPro-Medium-74"/>
     <use x="177.337448" xlink:href="#ApercuPro-Medium-72"/>
     <use x="219.037445" xlink:href="#ApercuPro-Medium-69"/>
     <use x="245.590561" xlink:href="#ApercuPro-Medium-62"/>
     <use x="305.674927" xlink:href="#ApercuPro-Medium-75"/>
     <use x="363.674911" xlink:href="#ApercuPro-Medium-74"/>
     <use x="402.174896" xlink:href="#ApercuPro-Medium-69"/>
     <use x="428.774887" xlink:href="#ApercuPro-Medium-6f"/>
     <use x="488.174881" xlink:href="#ApercuPro-Medium-6e"/>
     <use x="546.174866" xlink:href="#ApercuPro-Medium-20"/>
     <use x="571.974854" xlink:href="#ApercuPro-Medium-6f"/>
     <use x="631.374847" xlink:href="#ApercuPro-Medium-66"/>
     <use x="667.574844" xlink:href="#ApercuPro-Medium-20"/>
     <use x="693.374832" xlink:href="#ApercuPro-Medium-49"/>
     <use x="723.17482" xlink:href="#ApercuPro-Medium-6e"/>
     <use x="781.174805" xlink:href="#ApercuPro-Medium-76"/>
     <use x="826.774796" xlink:href="#ApercuPro-Medium-65"/>
     <use x="882.674789" xlink:href="#ApercuPro-Medium-73"/>
     <use x="927.674774" xlink:href="#ApercuPro-Medium-74"/>
     <use x="966.174759" xlink:href="#ApercuPro-Medium-6d"/>
     <use x="1052.27475" xlink:href="#ApercuPro-Medium-65"/>
     <use x="1108.159119" xlink:href="#ApercuPro-Medium-6e"/>
     <use x="1166.143478" xlink:href="#ApercuPro-Medium-74"/>
     <use x="1204.643463" xlink:href="#ApercuPro-Medium-73"/>
    </g>
   </g>
   <g id="text_22">
    <!-- Distribution of corporate credit ratings for all investments. -->
    <defs>
     <path d="M 9.703125 70 
L 28.90625 70 
Q 42.5 70 51.796875 60.640625 
Q 61.09375 51.296875 61.09375 35 
Q 61.09375 18.703125 51.796875 9.34375 
Q 42.5 0 28.90625 0 
L 9.703125 0 
z
M 27.40625 61.59375 
L 18.5 61.59375 
L 18.5 8.40625 
L 27.40625 8.40625 
Q 32.40625 8.40625 36.65625 9.84375 
Q 40.90625 11.296875 44.34375 14.296875 
Q 47.796875 17.296875 49.75 22.59375 
Q 51.703125 27.90625 51.703125 35 
Q 51.703125 42.09375 49.75 47.390625 
Q 47.796875 52.703125 44.34375 55.703125 
Q 40.90625 58.703125 36.65625 60.140625 
Q 32.40625 61.59375 27.40625 61.59375 
z
" id="Apercu-44"/>
     <path d="M 9 70.796875 
L 17.40625 70.796875 
L 17.40625 0 
L 9 0 
z
" id="Apercu-6c"/>
     <path d="M 35.09375 50.40625 
L 43.703125 50.40625 
L 27.09375 0 
L 18.5 0 
L 1.90625 50.40625 
L 10.5 50.40625 
L 22.796875 10.703125 
z
" id="Apercu-76"/>
     <path d="M 9 5.90625 
Q 9 8.5 10.796875 10.34375 
Q 12.59375 12.203125 15.296875 12.203125 
Q 17.90625 12.203125 19.75 10.34375 
Q 21.59375 8.5 21.59375 5.90625 
Q 21.59375 3.203125 19.75 1.390625 
Q 17.90625 -0.40625 15.296875 -0.40625 
Q 12.59375 -0.40625 10.796875 1.390625 
Q 9 3.203125 9 5.90625 
z
" id="Apercu-2e"/>
    </defs>
    <g style="opacity:0.75;" transform="translate(28.4 46.08)scale(0.15 -0.15)">
     <use xlink:href="#Apercu-44"/>
     <use x="66.568741" xlink:href="#Apercu-69"/>
     <use x="93.537476" xlink:href="#Apercu-73"/>
     <use x="139.637466" xlink:href="#Apercu-74"/>
     <use x="177.437454" xlink:href="#Apercu-72"/>
     <use x="218.721817" xlink:href="#Apercu-69"/>
     <use x="245.690552" xlink:href="#Apercu-62"/>
     <use x="305.790543" xlink:href="#Apercu-75"/>
     <use x="363.49054" xlink:href="#Apercu-74"/>
     <use x="401.290527" xlink:href="#Apercu-69"/>
     <use x="428.290512" xlink:href="#Apercu-6f"/>
     <use x="487.490509" xlink:href="#Apercu-6e"/>
     <use x="545.190506" xlink:href="#Apercu-20"/>
     <use x="571.990494" xlink:href="#Apercu-6f"/>
     <use x="631.190491" xlink:href="#Apercu-66"/>
     <use x="667.590485" xlink:href="#Apercu-20"/>
     <use x="694.390472" xlink:href="#Apercu-63"/>
     <use x="748.19046" xlink:href="#Apercu-6f"/>
     <use x="807.390457" xlink:href="#Apercu-72"/>
     <use x="848.690445" xlink:href="#Apercu-70"/>
     <use x="908.790436" xlink:href="#Apercu-6f"/>
     <use x="967.990433" xlink:href="#Apercu-72"/>
     <use x="1009.274796" xlink:href="#Apercu-61"/>
     <use x="1061.074783" xlink:href="#Apercu-74"/>
     <use x="1098.874771" xlink:href="#Apercu-65"/>
     <use x="1154.874756" xlink:href="#Apercu-20"/>
     <use x="1181.674744" xlink:href="#Apercu-63"/>
     <use x="1235.474731" xlink:href="#Apercu-72"/>
     <use x="1276.774719" xlink:href="#Apercu-65"/>
     <use x="1332.774704" xlink:href="#Apercu-64"/>
     <use x="1392.843445" xlink:href="#Apercu-69"/>
     <use x="1419.84343" xlink:href="#Apercu-74"/>
     <use x="1457.643417" xlink:href="#Apercu-20"/>
     <use x="1484.443405" xlink:href="#Apercu-72"/>
     <use x="1525.727768" xlink:href="#Apercu-61"/>
     <use x="1577.527756" xlink:href="#Apercu-74"/>
     <use x="1615.327744" xlink:href="#Apercu-69"/>
     <use x="1642.280853" xlink:href="#Apercu-6e"/>
     <use x="1699.965225" xlink:href="#Apercu-67"/>
     <use x="1750.665222" xlink:href="#Apercu-73"/>
     <use x="1796.765213" xlink:href="#Apercu-20"/>
     <use x="1823.565201" xlink:href="#Apercu-66"/>
     <use x="1859.933945" xlink:href="#Apercu-6f"/>
     <use x="1919.133942" xlink:href="#Apercu-72"/>
     <use x="1960.433929" xlink:href="#Apercu-20"/>
     <use x="1987.233917" xlink:href="#Apercu-61"/>
     <use x="2039.033905" xlink:href="#Apercu-6c"/>
     <use x="2064.833893" xlink:href="#Apercu-6c"/>
     <use x="2090.633881" xlink:href="#Apercu-20"/>
     <use x="2117.433868" xlink:href="#Apercu-69"/>
     <use x="2144.386978" xlink:href="#Apercu-6e"/>
     <use x="2202.086975" xlink:href="#Apercu-76"/>
     <use x="2247.686966" xlink:href="#Apercu-65"/>
     <use x="2303.686951" xlink:href="#Apercu-73"/>
     <use x="2349.786942" xlink:href="#Apercu-74"/>
     <use x="2387.586929" xlink:href="#Apercu-6d"/>
     <use x="2473.771286" xlink:href="#Apercu-65"/>
     <use x="2529.771271" xlink:href="#Apercu-6e"/>
     <use x="2587.471268" xlink:href="#Apercu-74"/>
     <use x="2625.271255" xlink:href="#Apercu-73"/>
     <use x="2671.324371" xlink:href="#Apercu-2e"/>
    </g>
   </g>
  </g>
 </g>
 <defs>
  <clipPath id="p4cfa06ca4b">
   <rect height="181.44" width="423.36" x="50.4" y="57.6"/>
  </clipPath>
 </defs>
</svg>
