<?xml version="1.0" encoding="utf-8" standalone="no"?>
<!DOCTYPE svg PUBLIC "-//W3C//DTD SVG 1.1//EN"
  "http://www.w3.org/Graphics/SVG/1.1/DTD/svg11.dtd">
<!-- Created with matplotlib (http://matplotlib.org/) -->
<svg height="324pt" version="1.1" viewBox="0 0 504 324" width="504pt" xmlns="http://www.w3.org/2000/svg" xmlns:xlink="http://www.w3.org/1999/xlink">
 <defs>
  <style type="text/css">
*{stroke-linecap:butt;stroke-linejoin:round;}
  </style>
 </defs>
 <g id="figure_1">
  <g id="patch_1">
   <path d="M 0 324 
L 504 324 
L 504 0 
L 0 0 
z
" style="fill:#f0f0f0;"/>
  </g>
  <g id="axes_1">
   <g id="patch_2">
    <path d="M 50.4 281.88 
L 478.8 281.88 
L 478.8 64.8 
L 50.4 64.8 
z
" style="fill:#f0f0f0;"/>
   </g>
   <g id="matplotlib.axis_1">
    <g id="xtick_1">
     <g id="line2d_1">
      <path clip-path="url(#p8a496589b6)" d="M 69.872727 281.88 
L 69.872727 64.8 
" style="fill:none;stroke:#cbcbcb;"/>
     </g>
     <g id="line2d_2"/>
     <g id="text_1">
      <!-- 0.0 -->
      <defs>
       <path d="M 48.203125 52.59375 
L 48.203125 17.40625 
Q 48.203125 9.703125 42.953125 4.34375 
Q 37.703125 -1 29.890625 -1 
Q 22.09375 -1 16.9375 4.390625 
Q 11.796875 9.796875 11.796875 17.5 
L 11.796875 52.59375 
Q 11.796875 60.296875 16.9375 65.640625 
Q 22.09375 71 29.890625 71 
Q 37.703125 71 42.953125 65.640625 
Q 48.203125 60.296875 48.203125 52.59375 
z
M 39.90625 17.296875 
L 39.90625 52.5 
Q 39.90625 56.90625 37 60 
Q 34.09375 63.09375 29.90625 63.09375 
Q 25.796875 63.09375 22.890625 60 
Q 20 56.90625 20 52.5 
L 20 17.40625 
Q 20 13 22.890625 9.953125 
Q 25.796875 6.90625 30 6.90625 
Q 34.09375 6.90625 37 9.90625 
Q 39.90625 12.90625 39.90625 17.296875 
z
" id="DecimaMonoPro-30"/>
       <path d="M 35.09375 7.5 
L 35.09375 2.59375 
Q 35.09375 0 32.5 0 
L 27.5 0 
Q 24.90625 0 24.90625 2.59375 
L 24.90625 7.5 
Q 24.90625 10.09375 27.5 10.09375 
L 32.5 10.09375 
Q 35.09375 10.09375 35.09375 7.5 
z
" id="DecimaMonoPro-2e"/>
      </defs>
      <g style="fill:#303030;" transform="translate(63.572727 290.286563)scale(0.07 -0.07)">
       <use xlink:href="#DecimaMonoPro-30"/>
       <use x="59.999985" xlink:href="#DecimaMonoPro-2e"/>
       <use x="119.999969" xlink:href="#DecimaMonoPro-30"/>
      </g>
     </g>
    </g>
    <g id="xtick_2">
     <g id="line2d_3">
      <path clip-path="url(#p8a496589b6)" d="M 147.763636 281.88 
L 147.763636 64.8 
" style="fill:none;stroke:#cbcbcb;"/>
     </g>
     <g id="line2d_4"/>
     <g id="text_2">
      <!-- 0.2 -->
      <defs>
       <path d="M 11.703125 53 
Q 11.703125 59.703125 17.203125 65.34375 
Q 22.703125 71 30.59375 71 
Q 38.40625 71 43.796875 65.75 
Q 49.203125 60.5 49.203125 52.703125 
Q 49.203125 46.90625 46.09375 41.75 
Q 43 36.59375 38.59375 32.84375 
Q 34.203125 29.09375 29.796875 25.4375 
Q 25.40625 21.796875 22.296875 17.296875 
Q 19.203125 12.796875 19.203125 7.796875 
L 47.40625 7.796875 
Q 48.203125 7.796875 48.703125 7.296875 
Q 49.203125 6.796875 49.203125 6 
L 49.203125 1.796875 
Q 49.203125 1 48.703125 0.5 
Q 48.203125 0 47.40625 0 
L 12.59375 0 
Q 11.796875 0 11.296875 0.5 
Q 10.796875 1 10.796875 1.796875 
L 10.796875 7.296875 
Q 10.796875 13.90625 13.890625 19.453125 
Q 17 25 21.390625 28.890625 
Q 25.796875 32.796875 30.1875 36.390625 
Q 34.59375 40 37.6875 44.296875 
Q 40.796875 48.59375 40.796875 53.296875 
Q 40.796875 57.40625 37.75 60.25 
Q 34.703125 63.09375 30.5 63.09375 
Q 26.09375 63.09375 23.1875 59.6875 
Q 20.296875 56.296875 20.09375 53 
Q 19.90625 51 17.796875 51 
L 14 51 
Q 12.90625 51 12.296875 51.59375 
Q 11.703125 52.203125 11.703125 53 
z
" id="DecimaMonoPro-32"/>
      </defs>
      <g style="fill:#303030;" transform="translate(141.463636 290.286563)scale(0.07 -0.07)">
       <use xlink:href="#DecimaMonoPro-30"/>
       <use x="59.999985" xlink:href="#DecimaMonoPro-2e"/>
       <use x="119.999969" xlink:href="#DecimaMonoPro-32"/>
      </g>
     </g>
    </g>
    <g id="xtick_3">
     <g id="line2d_5">
      <path clip-path="url(#p8a496589b6)" d="M 225.654545 281.88 
L 225.654545 64.8 
" style="fill:none;stroke:#cbcbcb;"/>
     </g>
     <g id="line2d_6"/>
     <g id="text_3">
      <!-- 0.4 -->
      <defs>
       <path d="M 40.09375 67.5 
L 19.5 22.90625 
L 35.796875 22.90625 
L 35.796875 38.90625 
Q 35.796875 39.703125 36.390625 40.296875 
Q 37 40.90625 38.09375 40.90625 
L 42.203125 40.90625 
Q 43 40.90625 43.59375 40.25 
Q 44.203125 39.59375 44.203125 38.90625 
L 44.203125 22.90625 
L 48 22.90625 
Q 48.796875 22.90625 49.390625 22.296875 
Q 50 21.703125 50 20.59375 
L 50 17.40625 
Q 50 16.296875 49.390625 15.6875 
Q 48.796875 15.09375 48 15.09375 
L 44.203125 15.09375 
L 44.203125 2 
Q 44.203125 1.203125 43.59375 0.59375 
Q 43 0 42.203125 0 
L 38.09375 0 
Q 37 0 36.390625 0.59375 
Q 35.796875 1.203125 35.796875 2 
L 35.796875 15.09375 
L 12.09375 15.09375 
Q 9.90625 15.09375 9.90625 17.40625 
L 9.90625 21.296875 
Q 9.90625 22.5 11 24.703125 
L 31.296875 68 
Q 32.296875 70 34 70 
L 38.796875 70 
Q 40.5 70 40.5 68.796875 
Q 40.5 68.5 40.09375 67.5 
z
" id="DecimaMonoPro-34"/>
      </defs>
      <g style="fill:#303030;" transform="translate(219.354545 290.286563)scale(0.07 -0.07)">
       <use xlink:href="#DecimaMonoPro-30"/>
       <use x="59.999985" xlink:href="#DecimaMonoPro-2e"/>
       <use x="119.999969" xlink:href="#DecimaMonoPro-34"/>
      </g>
     </g>
    </g>
    <g id="xtick_4">
     <g id="line2d_7">
      <path clip-path="url(#p8a496589b6)" d="M 303.545455 281.88 
L 303.545455 64.8 
" style="fill:none;stroke:#cbcbcb;"/>
     </g>
     <g id="line2d_8"/>
     <g id="text_4">
      <!-- 0.6 -->
      <defs>
       <path d="M 11 60.203125 
Q 21.59375 71 29.5 71 
Q 37.40625 71 42.65625 65.953125 
Q 47.90625 60.90625 47.90625 54.40625 
Q 47.90625 53.59375 47.296875 53 
Q 46.703125 52.40625 45.59375 52.40625 
L 41.796875 52.40625 
Q 39.703125 52.40625 39.5 54.40625 
Q 39.296875 57.59375 36.640625 60.296875 
Q 34 63 29.5 63 
Q 25.203125 63 22.25 59.890625 
Q 19.296875 56.796875 19.296875 52.40625 
L 19.296875 42.796875 
Q 19.703125 43.296875 20.59375 44.046875 
Q 21.5 44.796875 24.546875 46 
Q 27.59375 47.203125 31 47.203125 
Q 38.40625 47.203125 43.703125 42 
Q 49 36.796875 49 28.90625 
L 49 17.5 
Q 49 9.796875 43.546875 4.390625 
Q 38.09375 -1 30 -1 
Q 21.90625 -1 16.453125 4.34375 
Q 11 9.703125 11 17.40625 
L 11 52.5 
Q 11 60.203125 21.59375 71 
z
M 30 39.296875 
Q 25.40625 39.296875 22.34375 36.390625 
Q 19.296875 33.5 19.296875 28.796875 
L 19.296875 17.296875 
Q 19.296875 12.90625 22.390625 9.90625 
Q 25.5 6.90625 30 6.90625 
Q 34.40625 6.90625 37.5 9.953125 
Q 40.59375 13 40.59375 17.40625 
L 40.59375 28.796875 
Q 40.59375 33.40625 37.546875 36.34375 
Q 34.5 39.296875 30 39.296875 
z
" id="DecimaMonoPro-36"/>
      </defs>
      <g style="fill:#303030;" transform="translate(297.245455 290.286563)scale(0.07 -0.07)">
       <use xlink:href="#DecimaMonoPro-30"/>
       <use x="59.999985" xlink:href="#DecimaMonoPro-2e"/>
       <use x="119.999969" xlink:href="#DecimaMonoPro-36"/>
      </g>
     </g>
    </g>
    <g id="xtick_5">
     <g id="line2d_9">
      <path clip-path="url(#p8a496589b6)" d="M 381.436364 281.88 
L 381.436364 64.8 
" style="fill:none;stroke:#cbcbcb;"/>
     </g>
     <g id="line2d_10"/>
     <g id="text_5">
      <!-- 0.8 -->
      <defs>
       <path d="M 48.09375 53.5 
L 48.09375 49.796875 
Q 48.09375 41.5 41.796875 36.40625 
Q 49 30.796875 49 21.703125 
L 49 17.40625 
Q 49 9.703125 43.640625 4.34375 
Q 38.296875 -1 30.5 -1 
L 29.59375 -1 
Q 21.796875 -1 16.390625 4.390625 
Q 11 9.796875 11 17.5 
L 11 21.703125 
Q 11 30.703125 18.296875 36.40625 
Q 11.796875 41.296875 11.796875 49.90625 
L 11.796875 53.5 
Q 11.796875 60.796875 16.9375 65.890625 
Q 22.09375 71 29.5 71 
L 30.40625 71 
Q 37.796875 71 42.9375 65.890625 
Q 48.09375 60.796875 48.09375 53.5 
z
M 40.59375 17.296875 
L 40.59375 21.59375 
Q 40.59375 26 37.5 29.09375 
Q 34.40625 32.203125 30 32.203125 
Q 25.59375 32.203125 22.5 29.09375 
Q 19.40625 26 19.40625 21.59375 
L 19.40625 17.40625 
Q 19.40625 13 22.546875 9.953125 
Q 25.703125 6.90625 30.203125 6.90625 
Q 34.5 6.90625 37.546875 9.90625 
Q 40.59375 12.90625 40.59375 17.296875 
z
M 39.703125 49.703125 
L 39.703125 53.09375 
Q 39.703125 57.296875 36.84375 60.1875 
Q 34 63.09375 29.796875 63.09375 
Q 25.796875 63.09375 23 60.1875 
Q 20.203125 57.296875 20.203125 53.09375 
L 20.203125 49.796875 
Q 20.203125 45.90625 22.84375 43 
Q 25.5 40.09375 29.59375 40.09375 
L 30.5 40.09375 
Q 34.296875 40.09375 37 42.84375 
Q 39.703125 45.59375 39.703125 49.703125 
z
" id="DecimaMonoPro-38"/>
      </defs>
      <g style="fill:#303030;" transform="translate(375.136364 290.286563)scale(0.07 -0.07)">
       <use xlink:href="#DecimaMonoPro-30"/>
       <use x="59.999985" xlink:href="#DecimaMonoPro-2e"/>
       <use x="119.999969" xlink:href="#DecimaMonoPro-38"/>
      </g>
     </g>
    </g>
    <g id="xtick_6">
     <g id="line2d_11">
      <path clip-path="url(#p8a496589b6)" d="M 459.327273 281.88 
L 459.327273 64.8 
" style="fill:none;stroke:#cbcbcb;"/>
     </g>
     <g id="line2d_12"/>
     <g id="text_6">
      <!-- 1.0 -->
      <defs>
       <path d="M 13.90625 68.203125 
L 25.203125 70 
L 32.296875 70 
Q 33 70 33.546875 69.5 
Q 34.09375 69 34.09375 68.203125 
L 34.09375 7.703125 
L 47.296875 7.703125 
Q 48 7.703125 48.546875 7.140625 
Q 49.09375 6.59375 49.09375 5.90625 
L 49.09375 1.796875 
Q 49.09375 1 48.546875 0.5 
Q 48 0 47.296875 0 
L 12.59375 0 
Q 11.796875 0 11.296875 0.5 
Q 10.796875 1 10.796875 1.796875 
L 10.796875 5.90625 
Q 10.796875 6.59375 11.296875 7.140625 
Q 11.796875 7.703125 12.59375 7.703125 
L 25.703125 7.703125 
L 25.703125 62.09375 
L 14.703125 60.40625 
L 14.40625 60.40625 
Q 14 60.296875 13.5 60.296875 
Q 12.09375 60.296875 12.09375 62.09375 
L 12.09375 66.296875 
Q 12.09375 67.796875 13.90625 68.203125 
z
" id="DecimaMonoPro-31"/>
      </defs>
      <g style="fill:#303030;" transform="translate(453.027273 290.286563)scale(0.07 -0.07)">
       <use xlink:href="#DecimaMonoPro-31"/>
       <use x="59.999985" xlink:href="#DecimaMonoPro-2e"/>
       <use x="119.999969" xlink:href="#DecimaMonoPro-30"/>
      </g>
     </g>
    </g>
    <g id="text_7">
     <!-- Shuffle ratio -->
     <defs>
      <path d="M 44 59.59375 
L 36.90625 55 
Q 34.5 59.296875 31.890625 60.84375 
Q 29.296875 62.40625 25.796875 62.40625 
Q 22.203125 62.40625 19.796875 59.796875 
Q 17.40625 57.203125 17.40625 53.703125 
Q 17.40625 51.203125 18.296875 49.296875 
Q 19.203125 47.40625 21.546875 45.65625 
Q 23.90625 43.90625 25.5 43 
Q 27.09375 42.09375 30.90625 40.203125 
Q 33.90625 38.703125 35.75 37.640625 
Q 37.59375 36.59375 40.09375 34.6875 
Q 42.59375 32.796875 44.046875 30.890625 
Q 45.5 29 46.546875 26.203125 
Q 47.59375 23.40625 47.59375 20.09375 
Q 47.59375 11.703125 42.203125 5.796875 
Q 36.203125 -0.796875 26.59375 -0.796875 
Q 18.09375 -0.796875 11.9375 4.5 
Q 5.796875 9.796875 4 18.09375 
L 11.59375 22.703125 
Q 13.59375 15.59375 17 11.59375 
Q 20.40625 7.59375 26.59375 7.59375 
Q 32.703125 7.59375 36.09375 11.59375 
Q 38.796875 14.90625 38.796875 19.90625 
Q 38.796875 24.5 35.34375 27.5 
Q 31.90625 30.5 25.59375 33.5 
Q 21.5 35.40625 19 36.90625 
Q 16.5 38.40625 13.796875 40.75 
Q 11.09375 43.09375 9.84375 46.09375 
Q 8.59375 49.09375 8.59375 53 
Q 8.59375 60.59375 13.6875 65.6875 
Q 18.796875 70.796875 25.796875 70.796875 
Q 32.796875 70.796875 37 67.890625 
Q 41.203125 65 44 59.59375 
z
" id="Apercu-53"/>
      <path d="M 49.90625 35 
L 49.90625 0 
L 41.5 0 
L 41.5 33.296875 
Q 41.5 43.59375 32.796875 43.59375 
Q 26.90625 43.59375 22.25 37.4375 
Q 17.59375 31.296875 17.59375 21.40625 
L 17.59375 0 
L 9.203125 0 
L 9.203125 70.796875 
L 17.59375 70.796875 
L 17.59375 41 
Q 20 45.703125 24.640625 48.453125 
Q 29.296875 51.203125 35.09375 51.203125 
Q 42.09375 51.203125 46 47.046875 
Q 49.90625 42.90625 49.90625 35 
z
" id="Apercu-68"/>
      <path d="M 8.59375 14.90625 
L 8.59375 50.40625 
L 17 50.40625 
L 17 17.09375 
Q 17 6.796875 25.703125 6.796875 
Q 31.59375 6.796875 35.84375 13 
Q 40.09375 19.203125 40.09375 29.296875 
L 40.09375 50.40625 
L 48.5 50.40625 
L 48.5 0 
L 40.09375 0 
L 40.09375 9.296875 
Q 34.40625 -0.796875 23.40625 -0.796875 
Q 16.5 -0.796875 12.546875 3.296875 
Q 8.59375 7.40625 8.59375 14.90625 
z
" id="Apercu-75"/>
      <path d="M 4.703125 42.796875 
L 4.703125 50.40625 
L 11.90625 50.40625 
L 11.90625 53.703125 
Q 11.90625 62.203125 16.15625 66.5 
Q 20.40625 70.796875 28.203125 70.796875 
Q 32.59375 70.796875 35.40625 69.203125 
L 33.703125 61.796875 
Q 30.90625 63.203125 28.09375 63.203125 
Q 24 63.203125 22.140625 60.890625 
Q 20.296875 58.59375 20.296875 53.703125 
L 20.296875 50.40625 
L 31.90625 50.40625 
L 31.90625 42.796875 
L 20.296875 42.796875 
L 20.296875 0 
L 11.90625 0 
L 11.90625 42.796875 
z
" id="Apercu-66"/>
      <path d="M 9 70.796875 
L 17.40625 70.796875 
L 17.40625 0 
L 9 0 
z
" id="Apercu-6c"/>
      <path d="M 51 27.296875 
L 51 23.40625 
L 14 23.40625 
Q 14.40625 16 18.046875 11.390625 
Q 21.703125 6.796875 28.203125 6.796875 
Q 33.5 6.796875 36.75 9.140625 
Q 40 11.5 42.203125 16.40625 
L 49.59375 13.203125 
Q 46.09375 5.796875 41.046875 2.5 
Q 36 -0.796875 28.203125 -0.796875 
Q 17.296875 -0.796875 11.34375 6.75 
Q 5.40625 14.296875 5.40625 25.1875 
Q 5.40625 36.09375 11.34375 43.640625 
Q 17.296875 51.203125 28.203125 51.203125 
Q 38.90625 51.203125 44.953125 44.25 
Q 51 37.296875 51 27.296875 
z
M 28.203125 43.59375 
Q 22.59375 43.59375 19.140625 40.1875 
Q 15.703125 36.796875 14.5 31 
L 42.203125 31 
Q 41 36.703125 37.5 40.140625 
Q 34 43.59375 28.203125 43.59375 
z
" id="Apercu-65"/>
      <path id="Apercu-20"/>
      <path d="M 39.296875 49.703125 
L 37.59375 42.203125 
Q 34.796875 43.59375 31.703125 43.59375 
Q 26 43.59375 21.796875 37.140625 
Q 17.59375 30.703125 17.59375 19.09375 
L 17.59375 0 
L 9.203125 0 
L 9.203125 50.40625 
L 17.59375 50.40625 
L 17.59375 41.796875 
Q 19.796875 46 24 48.59375 
Q 28.203125 51.203125 32.40625 51.203125 
Q 36.5 51.203125 39.296875 49.703125 
z
" id="Apercu-72"/>
      <path d="M 14.203125 14.5 
Q 14.203125 10.90625 16.34375 8.84375 
Q 18.5 6.796875 22.5 6.796875 
Q 28.203125 6.796875 32.390625 10.546875 
Q 36.59375 14.296875 36.59375 22.203125 
L 36.59375 23.40625 
L 27.59375 23.40625 
Q 21.203125 23.40625 17.703125 21.09375 
Q 14.203125 18.796875 14.203125 14.5 
z
M 45 32.203125 
L 45 0 
L 38.40625 0 
L 37 7.09375 
Q 31.5 -0.796875 21.203125 -0.796875 
Q 14.40625 -0.796875 10 3 
Q 5.59375 6.796875 5.59375 14.5 
Q 5.59375 22.5 11.6875 26.75 
Q 17.796875 31 28.40625 31 
L 36.59375 31 
L 36.59375 33.203125 
Q 36.59375 43.59375 25.59375 43.59375 
Q 21.59375 43.59375 18.75 41.5 
Q 15.90625 39.40625 15.09375 35.703125 
L 7.703125 37.40625 
Q 8.703125 43.796875 13.59375 47.5 
Q 18.5 51.203125 25.59375 51.203125 
Q 34.40625 51.203125 39.703125 46.5 
Q 45 41.796875 45 32.203125 
z
" id="Apercu-61"/>
      <path d="M 2.5 42.796875 
L 2.5 50.40625 
L 11.203125 50.40625 
L 11.203125 65.5 
L 19.59375 70.796875 
L 19.59375 50.40625 
L 32.796875 50.40625 
L 32.796875 42.796875 
L 19.59375 42.796875 
L 19.59375 15.09375 
Q 19.59375 11.09375 21.34375 8.9375 
Q 23.09375 6.796875 26.296875 6.796875 
Q 29.59375 6.796875 32 8.40625 
L 34 1.09375 
Q 30.703125 -0.796875 25.796875 -0.796875 
Q 19.09375 -0.796875 15.140625 3.390625 
Q 11.203125 7.59375 11.203125 15.796875 
L 11.203125 42.796875 
z
" id="Apercu-74"/>
      <path d="M 9.296875 50.40625 
L 17.703125 50.40625 
L 17.703125 0 
L 9.296875 0 
z
M 7.203125 64.40625 
Q 7.203125 67.09375 9 68.9375 
Q 10.796875 70.796875 13.5 70.796875 
Q 16.203125 70.796875 18 68.9375 
Q 19.796875 67.09375 19.796875 64.40625 
Q 19.796875 61.796875 18 60 
Q 16.203125 58.203125 13.5 58.203125 
Q 10.796875 58.203125 9 60 
Q 7.203125 61.796875 7.203125 64.40625 
z
" id="Apercu-69"/>
      <path d="M 12 6.796875 
Q 5.40625 14.5 5.40625 25.203125 
Q 5.40625 35.90625 12.046875 43.546875 
Q 18.703125 51.203125 29.59375 51.203125 
Q 40.5 51.203125 47.140625 43.546875 
Q 53.796875 35.90625 53.796875 25.203125 
Q 53.796875 14.5 47.140625 6.84375 
Q 40.5 -0.796875 29.59375 -0.796875 
Q 18.703125 -0.796875 12 6.796875 
z
M 18.09375 38.09375 
Q 14 32.703125 14 25.203125 
Q 14 17.703125 18.140625 12.25 
Q 22.296875 6.796875 29.59375 6.796875 
Q 36.90625 6.796875 41.046875 12.25 
Q 45.203125 17.703125 45.203125 25.203125 
Q 45.203125 32.703125 41.046875 38.140625 
Q 36.90625 43.59375 29.59375 43.59375 
Q 22.296875 43.59375 18.09375 38.09375 
z
" id="Apercu-6f"/>
     </defs>
     <g style="opacity:0.75;" transform="translate(236.252344 302.62625)scale(0.1 -0.1)">
      <use xlink:href="#Apercu-53"/>
      <use x="52.299988" xlink:href="#Apercu-68"/>
      <use x="110.784348" xlink:href="#Apercu-75"/>
      <use x="168.468719" xlink:href="#Apercu-66"/>
      <use x="204.868713" xlink:href="#Apercu-66"/>
      <use x="241.268707" xlink:href="#Apercu-6c"/>
      <use x="267.068695" xlink:href="#Apercu-65"/>
      <use x="323.06868" xlink:href="#Apercu-20"/>
      <use x="349.868668" xlink:href="#Apercu-72"/>
      <use x="391.15303" xlink:href="#Apercu-61"/>
      <use x="442.953018" xlink:href="#Apercu-74"/>
      <use x="480.753006" xlink:href="#Apercu-69"/>
      <use x="507.752991" xlink:href="#Apercu-6f"/>
     </g>
    </g>
   </g>
   <g id="matplotlib.axis_2">
    <g id="ytick_1">
     <g id="line2d_13">
      <path clip-path="url(#p8a496589b6)" d="M 50.4 272.012727 
L 478.8 272.012727 
" style="fill:none;stroke:#cbcbcb;"/>
     </g>
     <g id="line2d_14"/>
     <g id="text_8">
      <!-- 0.0 -->
      <g style="fill:#303030;" transform="translate(34.3 274.466009)scale(0.07 -0.07)">
       <use xlink:href="#DecimaMonoPro-30"/>
       <use x="59.999985" xlink:href="#DecimaMonoPro-2e"/>
       <use x="119.999969" xlink:href="#DecimaMonoPro-30"/>
      </g>
     </g>
    </g>
    <g id="ytick_2">
     <g id="line2d_15">
      <path clip-path="url(#p8a496589b6)" d="M 50.4 230.378665 
L 478.8 230.378665 
" style="fill:none;stroke:#cbcbcb;"/>
     </g>
     <g id="line2d_16"/>
     <g id="text_9">
      <!-- 0.1 -->
      <g style="fill:#303030;" transform="translate(34.3 232.831946)scale(0.07 -0.07)">
       <use xlink:href="#DecimaMonoPro-30"/>
       <use x="59.999985" xlink:href="#DecimaMonoPro-2e"/>
       <use x="119.999969" xlink:href="#DecimaMonoPro-31"/>
      </g>
     </g>
    </g>
    <g id="ytick_3">
     <g id="line2d_17">
      <path clip-path="url(#p8a496589b6)" d="M 50.4 188.744603 
L 478.8 188.744603 
" style="fill:none;stroke:#cbcbcb;"/>
     </g>
     <g id="line2d_18"/>
     <g id="text_10">
      <!-- 0.2 -->
      <g style="fill:#303030;" transform="translate(34.3 191.197884)scale(0.07 -0.07)">
       <use xlink:href="#DecimaMonoPro-30"/>
       <use x="59.999985" xlink:href="#DecimaMonoPro-2e"/>
       <use x="119.999969" xlink:href="#DecimaMonoPro-32"/>
      </g>
     </g>
    </g>
    <g id="ytick_4">
     <g id="line2d_19">
      <path clip-path="url(#p8a496589b6)" d="M 50.4 147.110541 
L 478.8 147.110541 
" style="fill:none;stroke:#cbcbcb;"/>
     </g>
     <g id="line2d_20"/>
     <g id="text_11">
      <!-- 0.3 -->
      <defs>
       <path d="M 46.203125 61.09375 
L 35.40625 47.09375 
Q 40.796875 46.40625 44.890625 41.953125 
Q 49 37.5 49 31.5 
L 49 17.5 
Q 49 9.796875 43.5 4.390625 
Q 38 -1 30 -1 
Q 21.796875 -1 16.34375 4.34375 
Q 10.90625 9.703125 10.90625 17.40625 
Q 10.90625 18.203125 11.5 18.796875 
Q 12.09375 19.40625 13.203125 19.40625 
L 17 19.40625 
Q 19.09375 19.40625 19.296875 17.40625 
Q 19.296875 13 22.390625 9.953125 
Q 25.5 6.90625 30 6.90625 
Q 34.40625 6.90625 37.5 9.953125 
Q 40.59375 13 40.59375 17.40625 
L 40.59375 31.40625 
Q 40.59375 34.59375 38.296875 36.9375 
Q 36 39.296875 32.703125 39.296875 
L 27.40625 39.296875 
Q 25.203125 39.296875 25.203125 41.59375 
L 25.203125 45 
Q 25.203125 46.703125 26.296875 48.203125 
L 36.59375 62.09375 
L 16.90625 62.09375 
Q 14.703125 62.09375 14.703125 64.40625 
L 14.703125 67.703125 
Q 14.703125 70 16.90625 70 
L 45.09375 70 
Q 47.296875 70 47.296875 67.703125 
L 47.296875 64.296875 
Q 47.296875 62.59375 46.203125 61.09375 
z
" id="DecimaMonoPro-33"/>
      </defs>
      <g style="fill:#303030;" transform="translate(34.3 149.563822)scale(0.07 -0.07)">
       <use xlink:href="#DecimaMonoPro-30"/>
       <use x="59.999985" xlink:href="#DecimaMonoPro-2e"/>
       <use x="119.999969" xlink:href="#DecimaMonoPro-33"/>
      </g>
     </g>
    </g>
    <g id="ytick_5">
     <g id="line2d_21">
      <path clip-path="url(#p8a496589b6)" d="M 50.4 105.476479 
L 478.8 105.476479 
" style="fill:none;stroke:#cbcbcb;"/>
     </g>
     <g id="line2d_22"/>
     <g id="text_12">
      <!-- 0.4 -->
      <g style="fill:#303030;" transform="translate(34.3 107.92976)scale(0.07 -0.07)">
       <use xlink:href="#DecimaMonoPro-30"/>
       <use x="59.999985" xlink:href="#DecimaMonoPro-2e"/>
       <use x="119.999969" xlink:href="#DecimaMonoPro-34"/>
      </g>
     </g>
    </g>
    <g id="text_13">
     <!-- Score -->
     <defs>
      <path d="M 42.09375 16.09375 
L 49.40625 13.09375 
Q 43.296875 -0.796875 28.296875 -0.796875 
Q 17.296875 -0.796875 11.34375 6.75 
Q 5.40625 14.296875 5.40625 25.1875 
Q 5.40625 36.09375 11.34375 43.640625 
Q 17.296875 51.203125 28.296875 51.203125 
Q 43.296875 51.203125 49.40625 37.296875 
L 42.09375 34.296875 
Q 38.09375 43.59375 28.296875 43.59375 
Q 21.296875 43.59375 17.640625 38.4375 
Q 14 33.296875 14 25.1875 
Q 14 17.09375 17.640625 11.9375 
Q 21.296875 6.796875 28.296875 6.796875 
Q 38.09375 6.796875 42.09375 16.09375 
z
" id="Apercu-63"/>
     </defs>
     <g style="opacity:0.75;" transform="translate(28.259375 186.469687)rotate(-90)scale(0.1 -0.1)">
      <use xlink:href="#Apercu-53"/>
      <use x="52.299988" xlink:href="#Apercu-63"/>
      <use x="106.099976" xlink:href="#Apercu-6f"/>
      <use x="165.299973" xlink:href="#Apercu-72"/>
      <use x="206.59996" xlink:href="#Apercu-65"/>
     </g>
    </g>
   </g>
   <g id="line2d_23">
    <path clip-path="url(#p8a496589b6)" d="M 69.872727 218.304787 
L 108.818182 216.639425 
L 147.763636 219.137468 
L 186.709091 227.464281 
L 225.654545 226.215259 
L 264.6 225.798918 
L 303.545455 230.378665 
L 342.490909 237.040115 
L 381.436364 242.452543 
L 420.381818 254.110081 
L 459.327273 257.857146 
" style="fill:none;stroke:#008fd5;stroke-width:4;"/>
   </g>
   <g id="line2d_24">
    <path clip-path="url(#p8a496589b6)" d="M 69.872727 79.24702 
L 108.818182 100.896732 
L 147.763636 101.729413 
L 186.709091 74.667273 
L 225.654545 102.145754 
L 264.6 106.30916 
L 303.545455 75.916295 
L 342.490909 77.581657 
L 381.436364 87.573832 
L 420.381818 74.667273 
L 459.327273 74.667273 
" style="fill:none;stroke:#fc4f30;stroke-width:4;"/>
   </g>
   <g id="line2d_25">
    <path clip-path="url(#p8a496589b6)" d="M 69.872727 192.491669 
L 108.818182 192.075328 
L 147.763636 192.075328 
L 186.709091 198.320437 
L 225.654545 204.149206 
L 264.6 204.565547 
L 303.545455 208.312612 
L 342.490909 210.810656 
L 381.436364 227.464281 
L 420.381818 229.962325 
L 459.327273 232.044028 
" style="fill:none;stroke:#e5ae38;stroke-width:4;"/>
   </g>
   <g id="line2d_26">
    <path clip-path="url(#p8a496589b6)" d="M 50.4 272.012727 
L 478.8 272.012727 
" style="fill:none;opacity:0.7;stroke:#000000;stroke-width:1.3;"/>
   </g>
   <g id="patch_3">
    <path d="M 50.4 281.88 
L 50.4 64.8 
" style="fill:none;stroke:#f0f0f0;stroke-linecap:square;stroke-linejoin:miter;stroke-width:3;"/>
   </g>
   <g id="patch_4">
    <path d="M 478.8 281.88 
L 478.8 64.8 
" style="fill:none;stroke:#f0f0f0;stroke-linecap:square;stroke-linejoin:miter;stroke-width:3;"/>
   </g>
   <g id="patch_5">
    <path d="M 50.4 281.88 
L 478.8 281.88 
" style="fill:none;stroke:#f0f0f0;stroke-linecap:square;stroke-linejoin:miter;stroke-width:3;"/>
   </g>
   <g id="patch_6">
    <path d="M 50.4 64.8 
L 478.8 64.8 
" style="fill:none;stroke:#f0f0f0;stroke-linecap:square;stroke-linejoin:miter;stroke-width:3;"/>
   </g>
   <g id="patch_7">
    <path d="M 0 324 
L 504 324 
L 504 306.716049 
L 0 306.716049 
z
" style="fill:#808080;"/>
   </g>
   <g id="text_14">
    <!-- ©Computation Institute -->
    <defs>
     <path d="M 50.90625 25.90625 
L 50.90625 44 
Q 50.90625 52.40625 44.75 58.40625 
Q 38.59375 64.40625 30 64.40625 
Q 21.296875 64.40625 15.09375 58.40625 
Q 8.90625 52.40625 8.90625 44 
L 8.90625 25.90625 
Q 8.90625 17.5 15.09375 11.453125 
Q 21.296875 5.40625 30 5.40625 
Q 38.59375 5.40625 44.75 11.453125 
Q 50.90625 17.5 50.90625 25.90625 
z
M 57.703125 43.203125 
L 57.703125 26.59375 
Q 57.703125 15.203125 49.59375 7.09375 
Q 41.5 -1 30 -1 
Q 18.40625 -1 10.296875 7.09375 
Q 2.203125 15.203125 2.203125 26.59375 
L 2.203125 43.203125 
Q 2.203125 54.59375 10.296875 62.6875 
Q 18.40625 70.796875 30 70.796875 
Q 41.5 70.796875 49.59375 62.6875 
Q 57.703125 54.59375 57.703125 43.203125 
z
M 38.59375 29.40625 
L 41.40625 29.40625 
Q 42.40625 29.40625 42.90625 28.84375 
Q 43.40625 28.296875 43.40625 27.59375 
Q 43.40625 21.59375 39.796875 17.9375 
Q 36.203125 14.296875 30.40625 14.296875 
Q 24.40625 14.296875 20.75 17.9375 
Q 17.09375 21.59375 17.09375 27.09375 
L 17.09375 43.40625 
Q 17.09375 48.703125 20.75 52.390625 
Q 24.40625 56.09375 30.40625 56.09375 
Q 35.90625 56.09375 39.40625 52.25 
Q 42.90625 48.40625 42.90625 42.296875 
Q 42.90625 41.59375 42.40625 41.046875 
Q 41.90625 40.5 40.90625 40.5 
L 38.09375 40.5 
Q 37.09375 40.5 36.546875 41.046875 
Q 36 41.59375 36 42.296875 
Q 36 45.203125 34.390625 47.046875 
Q 32.796875 48.90625 30.40625 48.90625 
Q 27.703125 48.90625 25.796875 46.90625 
Q 23.90625 44.90625 23.90625 42.203125 
L 23.90625 28.203125 
Q 23.90625 25.59375 25.796875 23.59375 
Q 27.703125 21.59375 30.40625 21.59375 
Q 32.90625 21.59375 34.703125 23.1875 
Q 36.5 24.796875 36.5 27.59375 
Q 36.5 28.296875 37.046875 28.84375 
Q 37.59375 29.40625 38.59375 29.40625 
z
" id="DecimaMonoPro-a9"/>
     <path d="M 50.09375 17.40625 
Q 50.09375 9.703125 44.59375 4.34375 
Q 39.09375 -1 31 -1 
Q 22.796875 -1 17.25 4.390625 
Q 11.703125 9.796875 11.703125 17.5 
L 11.703125 52.59375 
Q 11.703125 60.296875 17.25 65.640625 
Q 22.796875 71 31 71 
Q 39.5 71 44.703125 65.546875 
Q 49.90625 60.09375 49.90625 54.5 
Q 49.90625 53.703125 49.296875 53.09375 
Q 48.703125 52.5 47.59375 52.5 
L 43.796875 52.5 
Q 41.703125 52.5 41.5 54.5 
Q 41.203125 57.5 38.203125 60.296875 
Q 35.203125 63.09375 31 63.09375 
Q 26.40625 63.09375 23.296875 60.09375 
Q 20.203125 57.09375 20.203125 52.703125 
L 20.203125 17.40625 
Q 20.203125 13 23.296875 9.953125 
Q 26.40625 6.90625 31 6.90625 
Q 35.40625 6.90625 38.546875 9.953125 
Q 41.703125 13 41.703125 17.40625 
Q 41.703125 18.203125 42.296875 18.796875 
Q 42.90625 19.40625 44 19.40625 
L 47.796875 19.40625 
Q 48.90625 19.40625 49.5 18.796875 
Q 50.09375 18.203125 50.09375 17.40625 
z
" id="DecimaMonoPro-43"/>
     <path d="M 49.796875 32.59375 
L 49.796875 17.40625 
Q 49.796875 9.703125 44.25 4.34375 
Q 38.703125 -1 30 -1 
Q 21.09375 -1 15.59375 4.34375 
Q 10.09375 9.703125 10.09375 17.5 
L 10.09375 32.59375 
Q 10.09375 40.296875 15.640625 45.640625 
Q 21.203125 51 30 51 
Q 38.703125 51 44.25 45.59375 
Q 49.796875 40.203125 49.796875 32.59375 
z
M 41.59375 16.90625 
L 41.59375 33.09375 
Q 41.59375 37.59375 38.4375 40.75 
Q 35.296875 43.90625 30 43.90625 
Q 24.703125 43.90625 21.453125 40.75 
Q 18.203125 37.59375 18.203125 33.09375 
L 18.203125 17 
Q 18.203125 12.5 21.453125 9.296875 
Q 24.703125 6.09375 30 6.09375 
Q 35.296875 6.09375 38.4375 9.25 
Q 41.59375 12.40625 41.59375 16.90625 
z
" id="DecimaMonoPro-6f"/>
     <path d="M 45.40625 1.796875 
L 45.40625 38.40625 
Q 45.40625 40.5 43.84375 42.140625 
Q 42.296875 43.796875 40.5 43.796875 
Q 37.40625 43.796875 35.75 41.4375 
Q 34.09375 39.09375 34.09375 35.5 
L 34.09375 1.796875 
Q 34.09375 0 31.796875 0 
L 28.59375 0 
Q 26.296875 0 26.296875 1.796875 
L 26.296875 38.40625 
Q 26.296875 40.59375 24.84375 42.1875 
Q 23.40625 43.796875 21.09375 43.796875 
Q 18.09375 43.796875 16.34375 41.390625 
Q 14.59375 39 14.59375 35.5 
L 14.59375 1.796875 
Q 14.59375 0 12.296875 0 
L 8.90625 0 
Q 6.59375 0 6.59375 1.796875 
L 6.59375 48.203125 
Q 6.59375 50 8.90625 50 
L 12.203125 50 
Q 14.40625 50 14.40625 48.203125 
L 14.40625 46.296875 
Q 17.5 50.796875 22.796875 50.796875 
Q 25.40625 50.796875 27.25 49.84375 
Q 29.09375 48.90625 29.796875 47.953125 
Q 30.5 47 31.40625 45.203125 
Q 35.40625 50.796875 41.59375 50.796875 
Q 47.203125 50.796875 50.296875 47.046875 
Q 53.40625 43.296875 53.40625 37.5 
L 53.40625 1.796875 
Q 53.40625 0 51.09375 0 
L 47.703125 0 
Q 45.40625 0 45.40625 1.796875 
z
" id="DecimaMonoPro-6d"/>
     <path d="M 42.09375 17.09375 
L 42.09375 33.09375 
Q 42.09375 37.703125 38.84375 40.796875 
Q 35.59375 43.90625 30.5 43.90625 
Q 25.40625 43.90625 22.046875 40.75 
Q 18.703125 37.59375 18.703125 33 
L 18.703125 17.09375 
Q 18.703125 12.5 22.046875 9.390625 
Q 25.40625 6.296875 30.5 6.296875 
Q 35.59375 6.296875 38.84375 9.390625 
Q 42.09375 12.5 42.09375 17.09375 
z
M 18.703125 3.703125 
L 18.796875 -16.203125 
Q 18.796875 -18 16.5 -18 
L 13 -18 
Q 10.703125 -18 10.703125 -16.203125 
L 10.703125 48.203125 
Q 10.703125 50 13 50 
L 15.90625 50 
Q 18.203125 50 18.203125 48.203125 
L 18.203125 45.90625 
Q 18.59375 46.5 19.5 47.34375 
Q 20.40625 48.203125 23.75 49.59375 
Q 27.09375 51 31.296875 51 
Q 39.296875 51 44.796875 45.640625 
Q 50.296875 40.296875 50.296875 32.59375 
L 50.296875 17.40625 
Q 50.296875 9.796875 44.75 4.390625 
Q 39.203125 -1 31.296875 -1 
Q 27.40625 -1 24.25 0.203125 
Q 21.09375 1.40625 19.90625 2.59375 
z
" id="DecimaMonoPro-70"/>
     <path d="M 10.203125 16.296875 
L 10.203125 48.203125 
Q 10.203125 50 12.5 50 
L 15.90625 50 
Q 18.203125 50 18.203125 48.203125 
L 18.203125 16.5 
Q 18.203125 6.203125 28.796875 6.203125 
Q 33.59375 6.203125 37.59375 9.5 
Q 41.59375 12.796875 41.59375 16.5 
L 41.59375 48.203125 
Q 41.59375 50 43.90625 50 
L 47.296875 50 
Q 49.59375 50 49.59375 48.203125 
L 49.59375 1.796875 
Q 49.59375 0 47.296875 0 
L 44.09375 0 
Q 41.796875 0 41.796875 1.796875 
L 41.796875 4.90625 
Q 41.09375 4.203125 39.9375 3.25 
Q 38.796875 2.296875 35.09375 0.640625 
Q 31.40625 -1 27.703125 -1 
Q 20 -1 15.09375 3.640625 
Q 10.203125 8.296875 10.203125 16.296875 
z
" id="DecimaMonoPro-75"/>
     <path d="M 24.796875 61.296875 
L 24.796875 50 
L 48.40625 50 
Q 49.203125 50 49.703125 49.5 
Q 50.203125 49 50.203125 48.203125 
L 50.203125 44.59375 
Q 50.203125 43.796875 49.703125 43.296875 
Q 49.203125 42.796875 48.40625 42.796875 
L 24.796875 42.796875 
L 24.796875 15.90625 
Q 24.796875 11.796875 27.390625 9 
Q 30 6.203125 34.796875 6.203125 
Q 39 6.203125 41.390625 8.640625 
Q 43.796875 11.09375 44.203125 14 
Q 44.40625 15.703125 45.90625 15.703125 
L 50.40625 15.703125 
Q 51.203125 15.703125 51.703125 15.140625 
Q 52.203125 14.59375 52.203125 13.90625 
Q 52.203125 11.59375 51.296875 9.25 
Q 50.40625 6.90625 48.546875 4.5 
Q 46.703125 2.09375 43.046875 0.546875 
Q 39.40625 -1 34.59375 -1 
Q 25.703125 -1 21.203125 3.59375 
Q 16.703125 8.203125 16.703125 15.09375 
L 16.703125 42.796875 
L 9.296875 42.796875 
Q 8.59375 42.796875 8.046875 43.296875 
Q 7.5 43.796875 7.5 44.59375 
L 7.5 48.203125 
Q 7.5 49 8.046875 49.5 
Q 8.59375 50 9.296875 50 
L 16.703125 50 
L 16.703125 61.296875 
Q 16.703125 63.09375 19 63.09375 
L 22.59375 63.09375 
Q 24.796875 63.09375 24.796875 61.296875 
z
" id="DecimaMonoPro-74"/>
     <path d="M 40.5 24.40625 
L 27.40625 23.5 
Q 23.5 23.203125 20.890625 20.75 
Q 18.296875 18.296875 18.296875 14.703125 
Q 18.296875 11.203125 21.140625 8.703125 
Q 24 6.203125 28.09375 6.203125 
Q 33.40625 6.203125 36.953125 9.25 
Q 40.5 12.296875 40.5 15.703125 
z
M 48.59375 34.796875 
L 48.59375 1.796875 
Q 48.59375 0 46.296875 0 
L 43.09375 0 
Q 40.796875 0 40.796875 1.796875 
L 40.796875 4.40625 
Q 40.296875 3.796875 39.34375 2.890625 
Q 38.40625 2 35.046875 0.5 
Q 31.703125 -1 27.703125 -1 
Q 20.5 -1 15.390625 3.453125 
Q 10.296875 7.90625 10.296875 14.59375 
Q 10.296875 21.09375 15.09375 25.640625 
Q 19.90625 30.203125 26.796875 30.703125 
L 40.5 31.59375 
L 40.5 34.203125 
Q 40.5 38.09375 37.796875 40.890625 
Q 35.09375 43.703125 30.703125 43.703125 
Q 26.90625 43.703125 24.40625 42.09375 
Q 21.90625 40.5 21 38.09375 
Q 20.203125 36.40625 19.203125 36.40625 
L 15 36.40625 
Q 14.203125 36.40625 13.703125 36.90625 
Q 13.203125 37.40625 13.203125 38.203125 
Q 13.203125 42.09375 18.203125 46.546875 
Q 23.203125 51 30.703125 51 
Q 39.296875 51 43.9375 46.390625 
Q 48.59375 41.796875 48.59375 34.796875 
z
" id="DecimaMonoPro-61"/>
     <path d="M 13 50 
L 34.40625 50 
Q 35.203125 50 35.703125 49.5 
Q 36.203125 49 36.203125 48.203125 
L 36.203125 7.203125 
L 49.703125 7.203125 
Q 50.40625 7.203125 50.953125 6.703125 
Q 51.5 6.203125 51.5 5.40625 
L 51.5 1.796875 
Q 51.5 1 50.953125 0.5 
Q 50.40625 0 49.703125 0 
L 12.5 0 
Q 11.796875 0 11.25 0.5 
Q 10.703125 1 10.703125 1.796875 
L 10.703125 5.40625 
Q 10.703125 6.203125 11.25 6.703125 
Q 11.796875 7.203125 12.5 7.203125 
L 28.203125 7.203125 
L 28.203125 42.796875 
L 13 42.796875 
Q 12.203125 42.796875 11.703125 43.296875 
Q 11.203125 43.796875 11.203125 44.59375 
L 11.203125 48.203125 
Q 11.203125 49 11.703125 49.5 
Q 12.203125 50 13 50 
z
M 36.40625 66.296875 
L 36.40625 62 
Q 36.40625 61 35.75 60.34375 
Q 35.09375 59.703125 34.09375 59.703125 
L 29.5 59.703125 
Q 28.5 59.703125 27.84375 60.34375 
Q 27.203125 61 27.203125 62 
L 27.203125 66.296875 
Q 27.203125 67.296875 27.84375 67.9375 
Q 28.5 68.59375 29.5 68.59375 
L 34.09375 68.59375 
Q 35.09375 68.59375 35.75 67.9375 
Q 36.40625 67.296875 36.40625 66.296875 
z
" id="DecimaMonoPro-69"/>
     <path d="M 50 32.40625 
L 50 1.796875 
Q 50 0 47.703125 0 
L 44.296875 0 
Q 42 0 42 1.796875 
L 42 32.703125 
Q 42 37.5 39.09375 40.640625 
Q 36.203125 43.796875 30.90625 43.796875 
Q 26.09375 43.796875 22.34375 40.546875 
Q 18.59375 37.296875 18.59375 33.5 
L 18.59375 1.796875 
Q 18.59375 0 16.296875 0 
L 12.90625 0 
Q 10.59375 0 10.59375 1.796875 
L 10.59375 48.203125 
Q 10.59375 50 12.90625 50 
L 16.09375 50 
Q 18.40625 50 18.40625 48.203125 
L 18.40625 45.5 
Q 24.09375 51 31.796875 51 
Q 40.296875 51 45.140625 45.75 
Q 50 40.5 50 32.40625 
z
" id="DecimaMonoPro-6e"/>
     <path id="DecimaMonoPro-20"/>
     <path d="M 47.296875 0 
L 12.703125 0 
Q 11.90625 0 11.296875 0.59375 
Q 10.703125 1.203125 10.703125 2.296875 
L 10.703125 5.59375 
Q 10.703125 6.703125 11.296875 7.296875 
Q 11.90625 7.90625 12.703125 7.90625 
L 25.796875 7.90625 
L 25.796875 62.09375 
L 12.703125 62.09375 
Q 11.90625 62.09375 11.296875 62.6875 
Q 10.703125 63.296875 10.703125 64.40625 
L 10.703125 67.703125 
Q 10.703125 68.796875 11.296875 69.390625 
Q 11.90625 70 12.703125 70 
L 47.296875 70 
Q 48.09375 70 48.6875 69.390625 
Q 49.296875 68.796875 49.296875 67.703125 
L 49.296875 64.40625 
Q 49.296875 63.296875 48.6875 62.6875 
Q 48.09375 62.09375 47.296875 62.09375 
L 34.203125 62.09375 
L 34.203125 7.90625 
L 47.296875 7.90625 
Q 48.09375 7.90625 48.6875 7.296875 
Q 49.296875 6.703125 49.296875 5.59375 
L 49.296875 2.296875 
Q 49.296875 1.203125 48.6875 0.59375 
Q 48.09375 0 47.296875 0 
z
" id="DecimaMonoPro-49"/>
     <path d="M 30.09375 -1 
Q 25.296875 -1 21.546875 0.59375 
Q 17.796875 2.203125 15.84375 4.59375 
Q 13.90625 7 12.953125 9.390625 
Q 12 11.796875 12 14 
Q 12 14.796875 12.5 15.296875 
Q 13 15.796875 13.796875 15.796875 
L 18.296875 15.796875 
Q 19.90625 15.796875 20.09375 14.09375 
Q 20.40625 11.203125 22.796875 8.703125 
Q 25.203125 6.203125 30.09375 6.203125 
Q 34.296875 6.203125 36.890625 8.296875 
Q 39.5 10.40625 39.5 13.59375 
Q 39.5 16.5 36.84375 18.5 
Q 34.203125 20.5 30.390625 21.84375 
Q 26.59375 23.203125 22.84375 24.796875 
Q 19.09375 26.40625 16.4375 29.5 
Q 13.796875 32.59375 13.796875 37.09375 
Q 13.796875 43.296875 18.4375 47.140625 
Q 23.09375 51 30.703125 51 
Q 38.90625 51 43.25 46.5 
Q 47.59375 42 47.59375 37.5 
Q 47.59375 36.796875 47.09375 36.25 
Q 46.59375 35.703125 45.796875 35.703125 
L 41.203125 35.703125 
Q 39.703125 35.703125 39.40625 37.40625 
Q 38.90625 40 36.75 41.890625 
Q 34.59375 43.796875 30.703125 43.796875 
Q 26.90625 43.796875 24.546875 42.09375 
Q 22.203125 40.40625 22.203125 37.703125 
Q 22.203125 35 24.84375 33.09375 
Q 27.5 31.203125 31.25 29.890625 
Q 35 28.59375 38.703125 26.9375 
Q 42.40625 25.296875 45.046875 21.84375 
Q 47.703125 18.40625 47.703125 13.40625 
Q 47.703125 7.40625 42.59375 3.203125 
Q 37.5 -1 30.09375 -1 
z
" id="DecimaMonoPro-73"/>
     <path d="M 48.796875 13.5 
Q 48.796875 9.09375 43.75 4.046875 
Q 38.703125 -1 30.203125 -1 
Q 21.203125 -1 15.75 4.453125 
Q 10.296875 9.90625 10.296875 17.5 
L 10.296875 32.703125 
Q 10.296875 40.203125 15.75 45.59375 
Q 21.203125 51 30.203125 51 
Q 39.203125 51 44.453125 45.59375 
Q 49.703125 40.203125 49.703125 32.703125 
L 49.703125 24.796875 
Q 49.703125 23.796875 49.046875 23.140625 
Q 48.40625 22.5 47.40625 22.5 
L 18.40625 22.5 
L 18.40625 17 
Q 18.40625 12.5 21.65625 9.296875 
Q 24.90625 6.09375 30.203125 6.09375 
Q 38.5 6.09375 40.59375 13.59375 
Q 41.09375 15.296875 42.40625 15.296875 
L 47 15.296875 
Q 47.796875 15.296875 48.296875 14.75 
Q 48.796875 14.203125 48.796875 13.5 
z
M 18.40625 33 
L 18.40625 29.703125 
L 41.796875 29.703125 
L 41.796875 33 
Q 41.796875 37.5 38.640625 40.640625 
Q 35.5 43.796875 30.203125 43.796875 
Q 24.90625 43.796875 21.65625 40.640625 
Q 18.40625 37.5 18.40625 33 
z
" id="DecimaMonoPro-65"/>
    </defs>
    <g style="fill:#ffffff;" transform="translate(10.08 318)scale(0.1 -0.1)">
     <use xlink:href="#DecimaMonoPro-a9"/>
     <use x="59.999985" xlink:href="#DecimaMonoPro-43"/>
     <use x="119.999969" xlink:href="#DecimaMonoPro-6f"/>
     <use x="179.999954" xlink:href="#DecimaMonoPro-6d"/>
     <use x="239.999939" xlink:href="#DecimaMonoPro-70"/>
     <use x="299.999924" xlink:href="#DecimaMonoPro-75"/>
     <use x="359.999908" xlink:href="#DecimaMonoPro-74"/>
     <use x="419.999893" xlink:href="#DecimaMonoPro-61"/>
     <use x="479.999878" xlink:href="#DecimaMonoPro-74"/>
     <use x="539.999863" xlink:href="#DecimaMonoPro-69"/>
     <use x="599.999847" xlink:href="#DecimaMonoPro-6f"/>
     <use x="659.999832" xlink:href="#DecimaMonoPro-6e"/>
     <use x="719.999817" xlink:href="#DecimaMonoPro-20"/>
     <use x="779.999802" xlink:href="#DecimaMonoPro-49"/>
     <use x="839.999786" xlink:href="#DecimaMonoPro-6e"/>
     <use x="899.999771" xlink:href="#DecimaMonoPro-73"/>
     <use x="959.999756" xlink:href="#DecimaMonoPro-74"/>
     <use x="1019.999741" xlink:href="#DecimaMonoPro-69"/>
     <use x="1079.999725" xlink:href="#DecimaMonoPro-74"/>
     <use x="1139.99971" xlink:href="#DecimaMonoPro-75"/>
     <use x="1199.999695" xlink:href="#DecimaMonoPro-74"/>
     <use x="1259.99968" xlink:href="#DecimaMonoPro-65"/>
    </g>
   </g>
   <g id="text_15">
    <!-- Cleanliness scores -->
    <defs>
     <path d="M 65.796875 49.59375 
C 62.203125 62.796875 52.40625 70.796875 37.5 70.796875 
C 20.59375 70.796875 5.09375 58.703125 5.09375 35 
C 5.09375 11.296875 20.59375 -0.796875 37.5 -0.796875 
C 52.40625 -0.796875 62.203125 7.203125 65.796875 20.40625 
L 55.40625 23 
C 51.90625 14.09375 47 9.59375 37.5 9.59375 
C 25.703125 9.59375 16.296875 17.90625 16.296875 35 
C 16.296875 52.09375 25.703125 60.40625 37.5 60.40625 
C 47 60.40625 51.90625 55.90625 55.40625 47 
z
" id="ApercuPro-Medium-43"/>
     <path d="M 8.40625 70.796875 
L 8.40625 0 
L 18.796875 0 
L 18.796875 70.796875 
z
" id="ApercuPro-Medium-6c"/>
     <path d="M 28.40625 42 
C 35.90625 42 39.703125 36.59375 40.59375 31 
L 16.09375 31 
C 17.203125 37.296875 21.5 42 28.40625 42 
z
M 51.59375 26.796875 
C 51.59375 38.09375 44.5 51.203125 28.40625 51.203125 
C 11.796875 51.203125 4.90625 37.203125 4.90625 25.203125 
C 4.90625 13.203125 11.796875 -0.796875 28.40625 -0.796875 
C 39.90625 -0.796875 45.59375 3.90625 50.5 13.40625 
L 41.59375 16.90625 
C 39 11.40625 33.796875 8.40625 28.40625 8.40625 
C 20.203125 8.40625 15.90625 14.90625 15.90625 22.296875 
L 51.59375 22.296875 
z
" id="ApercuPro-Medium-65"/>
     <path d="M 4.40625 14.5 
C 4.40625 4 11.5 -0.796875 19.90625 -0.796875 
C 27 -0.796875 32.203125 2 35.5 6.59375 
L 36.5 0 
L 45.296875 0 
L 45.296875 31.296875 
C 45.296875 46.09375 36.90625 51.203125 25.203125 51.203125 
C 15.5 51.203125 8.296875 45.796875 6.203125 37.296875 
L 15.703125 35.296875 
C 17.40625 39.796875 21 42 25.09375 42 
C 30.40625 42 34.90625 39.5 34.90625 33.203125 
L 34.90625 31 
L 26.203125 31 
C 13.296875 31 4.40625 24.90625 4.40625 14.5 
z
M 15.40625 14.5 
C 15.40625 19.296875 19.40625 22.296875 25.796875 22.296875 
L 34.90625 22.296875 
L 34.90625 21.203125 
C 34.90625 12.5 28.09375 8.40625 21.703125 8.40625 
C 17.296875 8.40625 15.40625 11.09375 15.40625 14.5 
z
" id="ApercuPro-Medium-61"/>
     <path d="M 8.59375 50.40625 
L 8.59375 0 
L 19 0 
L 19 20.40625 
C 19 34.296875 25.40625 42 31.90625 42 
C 36.59375 42 39.703125 39.59375 39.703125 32.796875 
L 39.703125 0 
L 50.09375 0 
L 50.09375 36.09375 
C 50.09375 45.90625 44.09375 51.203125 35.296875 51.203125 
C 28.59375 51.203125 22.59375 47.796875 19 41.796875 
L 19 50.40625 
z
" id="ApercuPro-Medium-6e"/>
     <path d="M 6.09375 64.59375 
C 6.09375 60.59375 9.203125 57.5 13.296875 57.5 
C 17.40625 57.5 20.5 60.59375 20.5 64.59375 
C 20.5 68.59375 17.40625 71.90625 13.296875 71.90625 
C 9.203125 71.90625 6.09375 68.59375 6.09375 64.59375 
z
M 8.09375 50.40625 
L 8.09375 0 
L 18.5 0 
L 18.5 50.40625 
z
" id="ApercuPro-Medium-69"/>
     <path d="M 23.40625 51.203125 
C 14.296875 51.203125 7.90625 44.703125 7.90625 36.90625 
C 7.90625 29.203125 12.90625 25.5 18.703125 23.09375 
C 24.59375 20.59375 30.703125 19.40625 30.703125 15 
C 30.703125 10.40625 27.90625 8.40625 23.90625 8.40625 
C 18.296875 8.40625 14.796875 13 12.796875 17.5 
L 4 12.703125 
C 6.59375 6.40625 13.09375 -0.796875 23.5 -0.796875 
C 34.296875 -0.796875 41 6.5 41 15.203125 
C 41 24.203125 33.703125 27.203125 26.90625 29.796875 
C 21.703125 31.796875 17.90625 33.40625 17.90625 37 
C 17.90625 40.296875 20.296875 42 22.90625 42 
C 26.09375 42 29.203125 40.59375 31.703125 37.40625 
L 38.296875 43.203125 
C 35.09375 48.203125 29.5 51.203125 23.40625 51.203125 
z
" id="ApercuPro-Medium-73"/>
     <path id="ApercuPro-Medium-20"/>
     <path d="M 41.09375 17.09375 
C 38.703125 11.703125 34.59375 8.40625 28.59375 8.40625 
C 19.703125 8.40625 15.90625 15.703125 15.90625 25.203125 
C 15.90625 34.703125 19.703125 42 28.59375 42 
C 34.59375 42 38.703125 38.703125 41.09375 33.296875 
L 50.40625 37.296875 
C 46.40625 46.40625 39.296875 51.203125 28.59375 51.203125 
C 12.59375 51.203125 4.90625 39 4.90625 25.203125 
C 4.90625 11.40625 12.59375 -0.796875 28.59375 -0.796875 
C 39.296875 -0.796875 46.40625 4 50.40625 13.09375 
z
" id="ApercuPro-Medium-63"/>
     <path d="M 4.90625 25.203125 
C 4.90625 11 14.09375 -0.796875 29.703125 -0.796875 
C 45.296875 -0.796875 54.5 11 54.5 25.203125 
C 54.5 39.40625 45.296875 51.203125 29.703125 51.203125 
C 14.09375 51.203125 4.90625 39.40625 4.90625 25.203125 
z
M 15.90625 25.203125 
C 15.90625 33.703125 20.59375 42 29.703125 42 
C 38.796875 42 43.5 33.703125 43.5 25.203125 
C 43.5 16.703125 38.796875 8.40625 29.703125 8.40625 
C 20.59375 8.40625 15.90625 16.703125 15.90625 25.203125 
z
" id="ApercuPro-Medium-6f"/>
     <path d="M 19 0 
L 19 18.703125 
C 19 34.59375 25.90625 42 32.59375 42 
C 34.703125 42 36.90625 41.5 38.5 40.5 
L 40.296875 50 
C 38.796875 50.59375 36.59375 51.203125 33.90625 51.203125 
C 28.5 51.203125 22.5 48 19 42 
L 19 50.40625 
L 8.59375 50.40625 
L 8.59375 0 
z
" id="ApercuPro-Medium-72"/>
    </defs>
    <g style="opacity:0.75;" transform="translate(32.4 32.4)scale(0.28 -0.28)">
     <use xlink:href="#ApercuPro-Medium-43"/>
     <use x="69.48436" xlink:href="#ApercuPro-Medium-6c"/>
     <use x="96.584351" xlink:href="#ApercuPro-Medium-65"/>
     <use x="152.484344" xlink:href="#ApercuPro-Medium-61"/>
     <use x="203.868713" xlink:href="#ApercuPro-Medium-6e"/>
     <use x="261.853073" xlink:href="#ApercuPro-Medium-6c"/>
     <use x="288.906189" xlink:href="#ApercuPro-Medium-69"/>
     <use x="315.459305" xlink:href="#ApercuPro-Medium-6e"/>
     <use x="373.45929" xlink:href="#ApercuPro-Medium-65"/>
     <use x="429.359283" xlink:href="#ApercuPro-Medium-73"/>
     <use x="474.359268" xlink:href="#ApercuPro-Medium-73"/>
     <use x="519.359253" xlink:href="#ApercuPro-Medium-20"/>
     <use x="545.159241" xlink:href="#ApercuPro-Medium-73"/>
     <use x="590.159225" xlink:href="#ApercuPro-Medium-63"/>
     <use x="644.359222" xlink:href="#ApercuPro-Medium-6f"/>
     <use x="703.759216" xlink:href="#ApercuPro-Medium-72"/>
     <use x="745.459213" xlink:href="#ApercuPro-Medium-65"/>
     <use x="801.359207" xlink:href="#ApercuPro-Medium-73"/>
    </g>
   </g>
   <g id="text_16">
    <!-- 3-ary dataset of tabular files with height 3. -->
    <defs>
     <path d="M 6.09375 19.203125 
L 14.5 20.296875 
Q 16.40625 7.203125 28.40625 7.203125 
Q 34.703125 7.203125 38.546875 11.09375 
Q 42.40625 15 42.40625 22 
Q 42.40625 29 38.546875 32.890625 
Q 34.703125 36.796875 28.40625 36.796875 
Q 24.90625 36.796875 22.203125 35.5 
L 18.703125 40.203125 
L 34.703125 62 
L 9.40625 62 
L 9.40625 70 
L 47.40625 70 
L 47.40625 67.296875 
L 29.59375 43.203125 
Q 30.5 43.5 32.40625 43.5 
Q 40.5 43.5 45.75 37.546875 
Q 51 31.59375 51 22 
Q 51 11.90625 44.703125 5.546875 
Q 38.40625 -0.796875 28.40625 -0.796875 
Q 19.59375 -0.796875 13.296875 4.703125 
Q 7 10.203125 6.09375 19.203125 
z
" id="Apercu-33"/>
     <path d="M 7.09375 28 
L 7.09375 35.40625 
L 41 35.40625 
L 41 28 
z
" id="Apercu-2d"/>
     <path d="M 36 50.40625 
L 44.796875 50.40625 
L 19.796875 -20.40625 
L 11.203125 -20.40625 
L 19.203125 2.09375 
L 1.5 50.40625 
L 10.703125 50.40625 
L 23.5 14 
z
" id="Apercu-79"/>
     <path d="M 27.796875 51.203125 
Q 32.296875 51.203125 36.6875 49 
Q 41.09375 46.796875 42.5 44.40625 
L 42.5 70.796875 
L 50.90625 70.796875 
L 50.90625 0 
L 42.5 0 
L 42.5 6.203125 
Q 40.59375 3.296875 36.4375 1.25 
Q 32.296875 -0.796875 27.796875 -0.796875 
Q 17 -0.796875 11.203125 6.34375 
Q 5.40625 13.5 5.40625 25.203125 
Q 5.40625 36.90625 11.203125 44.046875 
Q 17 51.203125 27.796875 51.203125 
z
M 28.59375 6.796875 
Q 35.40625 6.796875 39.296875 11.890625 
Q 43.203125 17 43.203125 25.203125 
Q 43.203125 33.40625 39.296875 38.5 
Q 35.40625 43.59375 28.59375 43.59375 
Q 22 43.59375 18 38.5 
Q 14 33.40625 14 25.203125 
Q 14 17 18 11.890625 
Q 22 6.796875 28.59375 6.796875 
z
" id="Apercu-64"/>
     <path d="M 23.59375 51.203125 
Q 32.796875 51.203125 38.203125 43.5 
L 32.5 38.59375 
Q 27.90625 43.59375 23.296875 43.59375 
Q 20.703125 43.59375 18.953125 41.890625 
Q 17.203125 40.203125 17.203125 37.203125 
Q 17.203125 34.703125 19.59375 32.890625 
Q 22 31.09375 25.453125 29.75 
Q 28.90625 28.40625 32.34375 26.796875 
Q 35.796875 25.203125 38.1875 22.25 
Q 40.59375 19.296875 40.59375 15.203125 
Q 40.59375 7.703125 36.09375 3.453125 
Q 31.59375 -0.796875 23.90625 -0.796875 
Q 16.796875 -0.796875 12.046875 3.09375 
Q 7.296875 7 5.09375 12.796875 
L 12.203125 16.703125 
Q 16.203125 6.796875 23.90625 6.796875 
Q 32 6.796875 32 14.703125 
Q 32 17.203125 29.59375 19 
Q 27.203125 20.796875 23.796875 22.046875 
Q 20.40625 23.296875 17 24.890625 
Q 13.59375 26.5 11.1875 29.640625 
Q 8.796875 32.796875 8.796875 37.296875 
Q 8.796875 43.296875 12.84375 47.25 
Q 16.90625 51.203125 23.59375 51.203125 
z
" id="Apercu-73"/>
     <path d="M 32.296875 -0.796875 
Q 27.796875 -0.796875 23.640625 1.25 
Q 19.5 3.296875 17.59375 6.203125 
L 17.59375 0 
L 9.203125 0 
L 9.203125 70.796875 
L 17.59375 70.796875 
L 17.59375 44.40625 
Q 19 46.796875 23.390625 49 
Q 27.796875 51.203125 32.296875 51.203125 
Q 43.09375 51.203125 48.890625 44.046875 
Q 54.703125 36.90625 54.703125 25.203125 
Q 54.703125 13.5 48.890625 6.34375 
Q 43.09375 -0.796875 32.296875 -0.796875 
z
M 31.5 43.59375 
Q 24.703125 43.59375 20.796875 38.5 
Q 16.90625 33.40625 16.90625 25.203125 
Q 16.90625 17 20.796875 11.890625 
Q 24.703125 6.796875 31.5 6.796875 
Q 38.09375 6.796875 42.09375 11.890625 
Q 46.09375 17 46.09375 25.203125 
Q 46.09375 33.40625 42.09375 38.5 
Q 38.09375 43.59375 31.5 43.59375 
z
" id="Apercu-62"/>
     <path d="M 61.296875 50.40625 
L 70.09375 50.40625 
L 54.796875 0 
L 46.796875 0 
L 36.90625 38.296875 
L 27 0 
L 19 0 
L 3.703125 50.40625 
L 12.5 50.40625 
L 22.796875 11.703125 
L 32.703125 50.40625 
L 41.09375 50.40625 
L 51 11.703125 
z
" id="Apercu-77"/>
     <path d="M 9 34.203125 
Q 9 41.796875 14 46.4375 
Q 19 51.09375 26.59375 51.09375 
Q 31.5 51.09375 35.703125 48.90625 
L 44.703125 54 
L 48.5 47.09375 
L 41.703125 43.296875 
Q 44.203125 39.40625 44.203125 34.203125 
Q 44.203125 26.5 39.203125 21.953125 
Q 34.203125 17.40625 26.59375 17.40625 
Q 21.59375 17.40625 17.90625 19.203125 
Q 14.59375 17.59375 14.59375 14.296875 
Q 14.59375 10.09375 20.296875 10.09375 
L 32.203125 10.09375 
Q 39.40625 10.09375 43.703125 6.5 
Q 48 2.90625 48 -3.796875 
Q 48 -12.59375 42 -16.890625 
Q 36 -21.203125 26.703125 -21.203125 
Q 17 -21.203125 11.140625 -16.796875 
Q 5.296875 -12.40625 5.296875 -4.59375 
Q 5.296875 1.90625 10 5.90625 
Q 6.59375 8.796875 6.59375 13.90625 
Q 6.59375 20.09375 12.703125 23.203125 
Q 9 27.703125 9 34.203125 
z
M 30.90625 2.90625 
L 20.703125 2.90625 
Q 19.203125 2.90625 17 3.09375 
Q 13.703125 0.5 13.703125 -4.296875 
Q 13.703125 -8.59375 17.046875 -11.1875 
Q 20.40625 -13.796875 26.703125 -13.796875 
Q 33 -13.796875 36.203125 -11.25 
Q 39.40625 -8.703125 39.40625 -4.59375 
Q 39.40625 2.90625 30.90625 2.90625 
z
M 19.90625 41.296875 
Q 17.203125 38.703125 17.203125 34.203125 
Q 17.203125 29.703125 19.890625 27.140625 
Q 22.59375 24.59375 26.59375 24.59375 
Q 30.59375 24.59375 33.296875 27.140625 
Q 36 29.703125 36 34.203125 
Q 36 38.703125 33.296875 41.296875 
Q 30.59375 43.90625 26.59375 43.90625 
Q 22.59375 43.90625 19.90625 41.296875 
z
" id="Apercu-67"/>
     <path d="M 9 5.90625 
Q 9 8.5 10.796875 10.34375 
Q 12.59375 12.203125 15.296875 12.203125 
Q 17.90625 12.203125 19.75 10.34375 
Q 21.59375 8.5 21.59375 5.90625 
Q 21.59375 3.203125 19.75 1.390625 
Q 17.90625 -0.40625 15.296875 -0.40625 
Q 12.59375 -0.40625 10.796875 1.390625 
Q 9 3.203125 9 5.90625 
z
" id="Apercu-2e"/>
    </defs>
    <g style="opacity:0.75;" transform="translate(33.4 51.84)scale(0.15 -0.15)">
     <use xlink:href="#Apercu-33"/>
     <use x="57.799988" xlink:href="#Apercu-2d"/>
     <use x="105.899979" xlink:href="#Apercu-61"/>
     <use x="157.684341" xlink:href="#Apercu-72"/>
     <use x="199.031204" xlink:href="#Apercu-79"/>
     <use x="245.031189" xlink:href="#Apercu-20"/>
     <use x="271.831177" xlink:href="#Apercu-64"/>
     <use x="331.915543" xlink:href="#Apercu-61"/>
     <use x="383.71553" xlink:href="#Apercu-74"/>
     <use x="421.515518" xlink:href="#Apercu-61"/>
     <use x="473.315506" xlink:href="#Apercu-73"/>
     <use x="519.415497" xlink:href="#Apercu-65"/>
     <use x="575.415482" xlink:href="#Apercu-74"/>
     <use x="613.215469" xlink:href="#Apercu-20"/>
     <use x="640.015457" xlink:href="#Apercu-6f"/>
     <use x="699.215454" xlink:href="#Apercu-66"/>
     <use x="735.615448" xlink:href="#Apercu-20"/>
     <use x="762.415436" xlink:href="#Apercu-74"/>
     <use x="800.215424" xlink:href="#Apercu-61"/>
     <use x="851.999786" xlink:href="#Apercu-62"/>
     <use x="912.099777" xlink:href="#Apercu-75"/>
     <use x="969.768524" xlink:href="#Apercu-6c"/>
     <use x="995.568512" xlink:href="#Apercu-61"/>
     <use x="1047.352875" xlink:href="#Apercu-72"/>
     <use x="1088.652863" xlink:href="#Apercu-20"/>
     <use x="1115.45285" xlink:href="#Apercu-66"/>
     <use x="1151.852844" xlink:href="#Apercu-69"/>
     <use x="1178.837204" xlink:href="#Apercu-6c"/>
     <use x="1204.637192" xlink:href="#Apercu-65"/>
     <use x="1260.637177" xlink:href="#Apercu-73"/>
     <use x="1306.737167" xlink:href="#Apercu-20"/>
     <use x="1333.537155" xlink:href="#Apercu-77"/>
     <use x="1407.321518" xlink:href="#Apercu-69"/>
     <use x="1434.321503" xlink:href="#Apercu-74"/>
     <use x="1472.12149" xlink:href="#Apercu-68"/>
     <use x="1530.621475" xlink:href="#Apercu-20"/>
     <use x="1557.421463" xlink:href="#Apercu-68"/>
     <use x="1615.905823" xlink:href="#Apercu-65"/>
     <use x="1671.905807" xlink:href="#Apercu-69"/>
     <use x="1698.890167" xlink:href="#Apercu-67"/>
     <use x="1749.590164" xlink:href="#Apercu-68"/>
     <use x="1808.090149" xlink:href="#Apercu-74"/>
     <use x="1845.890137" xlink:href="#Apercu-20"/>
     <use x="1872.690125" xlink:href="#Apercu-33"/>
     <use x="1930.427612" xlink:href="#Apercu-2e"/>
    </g>
   </g>
   <g id="legend_1">
    <g id="patch_8">
     <path d="M 354.1175 191.484375 
L 473.2 191.484375 
Q 474.8 191.484375 474.8 189.884375 
L 474.8 156.795625 
Q 474.8 155.195625 473.2 155.195625 
L 354.1175 155.195625 
Q 352.5175 155.195625 352.5175 156.795625 
L 352.5175 189.884375 
Q 352.5175 191.484375 354.1175 191.484375 
z
" style="fill:#f0f0f0;opacity:0.8;stroke:#cccccc;stroke-linejoin:miter;stroke-width:0.5;"/>
    </g>
    <g id="line2d_27">
     <path d="M 355.7175 161.259375 
L 371.7175 161.259375 
" style="fill:none;stroke:#008fd5;stroke-width:4;"/>
    </g>
    <g id="line2d_28"/>
    <g id="text_17">
     <!-- Frequency drop score -->
     <defs>
      <path d="M 9.703125 70 
L 50.40625 70 
L 50.40625 61.59375 
L 18.5 61.59375 
L 18.5 40.703125 
L 44.40625 40.703125 
L 44.40625 32.296875 
L 18.5 32.296875 
L 18.5 0 
L 9.703125 0 
z
" id="Apercu-46"/>
      <path d="M 27.796875 51.203125 
Q 32.296875 51.203125 36.4375 49.140625 
Q 40.59375 47.09375 42.5 44.203125 
L 42.5 50.40625 
L 50.90625 50.40625 
L 50.90625 -20.40625 
L 42.5 -20.40625 
L 42.5 6 
Q 41.09375 3.59375 36.6875 1.390625 
Q 32.296875 -0.796875 27.796875 -0.796875 
Q 17 -0.796875 11.203125 6.34375 
Q 5.40625 13.5 5.40625 25.203125 
Q 5.40625 36.90625 11.203125 44.046875 
Q 17 51.203125 27.796875 51.203125 
z
M 28.59375 6.796875 
Q 35.40625 6.796875 39.296875 11.890625 
Q 43.203125 17 43.203125 25.203125 
Q 43.203125 33.40625 39.296875 38.5 
Q 35.40625 43.59375 28.59375 43.59375 
Q 22 43.59375 18 38.5 
Q 14 33.40625 14 25.203125 
Q 14 17 18 11.890625 
Q 22 6.796875 28.59375 6.796875 
z
" id="Apercu-71"/>
      <path d="M 49.09375 35.5 
L 49.09375 0 
L 40.703125 0 
L 40.703125 33.296875 
Q 40.703125 43.59375 32 43.59375 
Q 26.09375 43.59375 21.84375 37.390625 
Q 17.59375 31.203125 17.59375 21.09375 
L 17.59375 0 
L 9.203125 0 
L 9.203125 50.40625 
L 17.59375 50.40625 
L 17.59375 41.09375 
Q 23.296875 51.203125 34.296875 51.203125 
Q 41.203125 51.203125 45.140625 47.09375 
Q 49.09375 43 49.09375 35.5 
z
" id="Apercu-6e"/>
      <path d="M 32.296875 -0.796875 
Q 27.796875 -0.796875 23.390625 1.390625 
Q 19 3.59375 17.59375 6 
L 17.59375 -20.40625 
L 9.203125 -20.40625 
L 9.203125 50.40625 
L 17.59375 50.40625 
L 17.59375 44.203125 
Q 19.5 47.09375 23.640625 49.140625 
Q 27.796875 51.203125 32.296875 51.203125 
Q 43.09375 51.203125 48.890625 44.046875 
Q 54.703125 36.90625 54.703125 25.203125 
Q 54.703125 13.5 48.890625 6.34375 
Q 43.09375 -0.796875 32.296875 -0.796875 
z
M 31.5 43.59375 
Q 24.703125 43.59375 20.796875 38.5 
Q 16.90625 33.40625 16.90625 25.203125 
Q 16.90625 17 20.796875 11.890625 
Q 24.703125 6.796875 31.5 6.796875 
Q 38.09375 6.796875 42.09375 11.890625 
Q 46.09375 17 46.09375 25.203125 
Q 46.09375 33.40625 42.09375 38.5 
Q 38.09375 43.59375 31.5 43.59375 
z
" id="Apercu-70"/>
     </defs>
     <g style="opacity:0.75;" transform="translate(378.1175 164.059375)scale(0.08 -0.08)">
      <use xlink:href="#Apercu-46"/>
      <use x="53.753113" xlink:href="#Apercu-72"/>
      <use x="95.053101" xlink:href="#Apercu-65"/>
      <use x="151.053085" xlink:href="#Apercu-71"/>
      <use x="211.121826" xlink:href="#Apercu-75"/>
      <use x="268.821823" xlink:href="#Apercu-65"/>
      <use x="324.821808" xlink:href="#Apercu-6e"/>
      <use x="382.50618" xlink:href="#Apercu-63"/>
      <use x="436.306168" xlink:href="#Apercu-79"/>
      <use x="482.306152" xlink:href="#Apercu-20"/>
      <use x="509.10614" xlink:href="#Apercu-64"/>
      <use x="569.174881" xlink:href="#Apercu-72"/>
      <use x="610.474869" xlink:href="#Apercu-6f"/>
      <use x="669.674866" xlink:href="#Apercu-70"/>
      <use x="729.774857" xlink:href="#Apercu-20"/>
      <use x="756.574844" xlink:href="#Apercu-73"/>
      <use x="802.674835" xlink:href="#Apercu-63"/>
      <use x="856.474823" xlink:href="#Apercu-6f"/>
      <use x="915.67482" xlink:href="#Apercu-72"/>
      <use x="956.974808" xlink:href="#Apercu-65"/>
     </g>
    </g>
    <g id="line2d_29">
     <path d="M 355.7175 172.555625 
L 371.7175 172.555625 
" style="fill:none;stroke:#fc4f30;stroke-width:4;"/>
    </g>
    <g id="line2d_30"/>
    <g id="text_18">
     <!-- Silhouette score -->
     <g style="opacity:0.75;" transform="translate(378.1175 175.355625)scale(0.08 -0.08)">
      <use xlink:href="#Apercu-53"/>
      <use x="52.284363" xlink:href="#Apercu-69"/>
      <use x="79.268723" xlink:href="#Apercu-6c"/>
      <use x="105.053085" xlink:href="#Apercu-68"/>
      <use x="163.537445" xlink:href="#Apercu-6f"/>
      <use x="222.737442" xlink:href="#Apercu-75"/>
      <use x="280.437439" xlink:href="#Apercu-65"/>
      <use x="336.437424" xlink:href="#Apercu-74"/>
      <use x="374.237411" xlink:href="#Apercu-74"/>
      <use x="412.037399" xlink:href="#Apercu-65"/>
      <use x="468.037384" xlink:href="#Apercu-20"/>
      <use x="494.837372" xlink:href="#Apercu-73"/>
      <use x="540.937363" xlink:href="#Apercu-63"/>
      <use x="594.73735" xlink:href="#Apercu-6f"/>
      <use x="653.937347" xlink:href="#Apercu-72"/>
      <use x="695.237335" xlink:href="#Apercu-65"/>
     </g>
    </g>
    <g id="line2d_31">
     <path d="M 355.7175 183.851875 
L 371.7175 183.851875 
" style="fill:none;stroke:#e5ae38;stroke-width:4;"/>
    </g>
    <g id="line2d_32"/>
    <g id="text_19">
     <!-- Naive tree distance score -->
     <defs>
      <path d="M 51.59375 70 
L 60.40625 70 
L 60.40625 0 
L 50.09375 0 
L 18.5 54.5 
L 18.5 0 
L 9.703125 0 
L 9.703125 70 
L 20 70 
L 51.59375 15.296875 
z
" id="Apercu-4e"/>
      <path d="M 35.09375 50.40625 
L 43.703125 50.40625 
L 27.09375 0 
L 18.5 0 
L 1.90625 50.40625 
L 10.5 50.40625 
L 22.796875 10.703125 
z
" id="Apercu-76"/>
     </defs>
     <g style="opacity:0.75;" transform="translate(378.1175 186.651875)scale(0.08 -0.08)">
      <use xlink:href="#Apercu-4e"/>
      <use x="70.084366" xlink:href="#Apercu-61"/>
      <use x="121.868729" xlink:href="#Apercu-69"/>
      <use x="148.884338" xlink:href="#Apercu-76"/>
      <use x="194.484329" xlink:href="#Apercu-65"/>
      <use x="250.484314" xlink:href="#Apercu-20"/>
      <use x="277.284302" xlink:href="#Apercu-74"/>
      <use x="315.08429" xlink:href="#Apercu-72"/>
      <use x="356.384277" xlink:href="#Apercu-65"/>
      <use x="412.384262" xlink:href="#Apercu-65"/>
      <use x="468.384247" xlink:href="#Apercu-20"/>
      <use x="495.184235" xlink:href="#Apercu-64"/>
      <use x="555.252975" xlink:href="#Apercu-69"/>
      <use x="582.22171" xlink:href="#Apercu-73"/>
      <use x="628.321701" xlink:href="#Apercu-74"/>
      <use x="666.121689" xlink:href="#Apercu-61"/>
      <use x="717.906052" xlink:href="#Apercu-6e"/>
      <use x="775.590424" xlink:href="#Apercu-63"/>
      <use x="829.390411" xlink:href="#Apercu-65"/>
      <use x="885.390396" xlink:href="#Apercu-20"/>
      <use x="912.190384" xlink:href="#Apercu-73"/>
      <use x="958.290375" xlink:href="#Apercu-63"/>
      <use x="1012.090363" xlink:href="#Apercu-6f"/>
      <use x="1071.290359" xlink:href="#Apercu-72"/>
      <use x="1112.590347" xlink:href="#Apercu-65"/>
     </g>
    </g>
   </g>
  </g>
 </g>
 <defs>
  <clipPath id="p8a496589b6">
   <rect height="217.08" width="428.4" x="50.4" y="64.8"/>
  </clipPath>
 </defs>
</svg>
