<?xml version="1.0" encoding="utf-8" standalone="no"?>
<!DOCTYPE svg PUBLIC "-//W3C//DTD SVG 1.1//EN"
  "http://www.w3.org/Graphics/SVG/1.1/DTD/svg11.dtd">
<!-- Created with matplotlib (http://matplotlib.org/) -->
<svg height="288pt" version="1.1" viewBox="0 0 432 288" width="432pt" xmlns="http://www.w3.org/2000/svg" xmlns:xlink="http://www.w3.org/1999/xlink">
 <defs>
  <style type="text/css">
*{stroke-linecap:butt;stroke-linejoin:round;}
  </style>
 </defs>
 <g id="figure_1">
  <g id="patch_1">
   <path d="M 0 288 
L 432 288 
L 432 0 
L 0 0 
z
" style="fill:#ffffff;"/>
  </g>
  <g id="axes_1">
   <g id="patch_2">
    <path d="M 330.12 143.28 
C 330.12 129.00302 327.307746 114.864866 321.844183 101.674657 
C 316.380619 88.484448 308.371998 76.4987 298.276649 66.403351 
C 288.1813 56.308002 276.195552 48.299381 263.005343 42.835817 
C 249.815134 37.372254 235.67698 34.56 221.4 34.56 
C 207.12302 34.56 192.984866 37.372254 179.794657 42.835817 
C 166.604448 48.299381 154.6187 56.308002 144.523351 66.403351 
C 134.428002 76.4987 126.419381 88.484448 120.955817 101.674657 
C 115.492254 114.864866 112.68 129.00302 112.68 143.28 
C 112.68 157.55698 115.492254 171.695134 120.955817 184.885343 
C 126.419381 198.075552 134.428002 210.0613 144.523351 220.156649 
C 154.6187 230.251998 166.604448 238.260619 179.794657 243.724183 
C 192.984866 249.187746 207.12302 252 221.4 252 
C 235.67698 252 249.815134 249.187746 263.005343 243.724183 
C 276.195552 238.260619 288.1813 230.251998 298.276649 220.156649 
C 308.371998 210.0613 316.380619 198.075552 321.844183 184.885343 
C 327.307746 171.695134 330.12 157.55698 330.12 143.28 
M 221.4 143.28 
C 221.4 143.28 221.4 143.28 221.4 143.28 
C 221.4 143.28 221.4 143.28 221.4 143.28 
C 221.4 143.28 221.4 143.28 221.4 143.28 
C 221.4 143.28 221.4 143.28 221.4 143.28 
C 221.4 143.28 221.4 143.28 221.4 143.28 
C 221.4 143.28 221.4 143.28 221.4 143.28 
C 221.4 143.28 221.4 143.28 221.4 143.28 
C 221.4 143.28 221.4 143.28 221.4 143.28 
C 221.4 143.28 221.4 143.28 221.4 143.28 
C 221.4 143.28 221.4 143.28 221.4 143.28 
C 221.4 143.28 221.4 143.28 221.4 143.28 
C 221.4 143.28 221.4 143.28 221.4 143.28 
C 221.4 143.28 221.4 143.28 221.4 143.28 
C 221.4 143.28 221.4 143.28 221.4 143.28 
C 221.4 143.28 221.4 143.28 221.4 143.28 
C 221.4 143.28 221.4 143.28 221.4 143.28 
M 330.12 143.28 
z
" style="fill:#f0f0f0;"/>
   </g>
   <g id="patch_3">
    <path clip-path="url(#p90bcfd826d)" d="M 221.4 125.16 
L 237.09238 134.22 
L 237.09238 152.34 
L 221.4 197.64 
L 158.630479 179.52 
L 127.245718 88.92 
z
" style="fill:#0000ff;opacity:0.1;"/>
   </g>
   <g id="patch_4">
    <path clip-path="url(#p90bcfd826d)" d="M 221.4 125.16 
L 237.09238 134.22 
L 237.09238 152.34 
L 221.4 197.64 
L 190.015239 161.4 
L 205.70762 134.22 
z
" style="fill:#ff0000;opacity:0.1;"/>
   </g>
   <g id="matplotlib.axis_1">
    <g id="xtick_1">
     <g id="line2d_1">
      <path clip-path="url(#p90bcfd826d)" d="M 221.4 143.28 
L 221.4 34.56 
" style="fill:none;stroke:#b0b0b0;stroke-linecap:square;stroke-width:0.8;"/>
     </g>
     <g id="text_1">
      <!-- WMB -->
      <defs>
       <path d="M 3.328125 72.90625 
L 13.28125 72.90625 
L 28.609375 11.28125 
L 43.890625 72.90625 
L 54.984375 72.90625 
L 70.3125 11.28125 
L 85.59375 72.90625 
L 95.609375 72.90625 
L 77.296875 0 
L 64.890625 0 
L 49.515625 63.28125 
L 33.984375 0 
L 21.578125 0 
z
" id="DejaVuSans-57"/>
       <path d="M 9.8125 72.90625 
L 24.515625 72.90625 
L 43.109375 23.296875 
L 61.8125 72.90625 
L 76.515625 72.90625 
L 76.515625 0 
L 66.890625 0 
L 66.890625 64.015625 
L 48.09375 14.015625 
L 38.1875 14.015625 
L 19.390625 64.015625 
L 19.390625 0 
L 9.8125 0 
z
" id="DejaVuSans-4d"/>
       <path d="M 19.671875 34.8125 
L 19.671875 8.109375 
L 35.5 8.109375 
Q 43.453125 8.109375 47.28125 11.40625 
Q 51.125 14.703125 51.125 21.484375 
Q 51.125 28.328125 47.28125 31.5625 
Q 43.453125 34.8125 35.5 34.8125 
z
M 19.671875 64.796875 
L 19.671875 42.828125 
L 34.28125 42.828125 
Q 41.5 42.828125 45.03125 45.53125 
Q 48.578125 48.25 48.578125 53.8125 
Q 48.578125 59.328125 45.03125 62.0625 
Q 41.5 64.796875 34.28125 64.796875 
z
M 9.8125 72.90625 
L 35.015625 72.90625 
Q 46.296875 72.90625 52.390625 68.21875 
Q 58.5 63.53125 58.5 54.890625 
Q 58.5 48.1875 55.375 44.234375 
Q 52.25 40.28125 46.1875 39.3125 
Q 53.46875 37.75 57.5 32.78125 
Q 61.53125 27.828125 61.53125 20.40625 
Q 61.53125 10.640625 54.890625 5.3125 
Q 48.25 0 35.984375 0 
L 9.8125 0 
z
" id="DejaVuSans-42"/>
      </defs>
      <g transform="translate(208.711719 23.319375)scale(0.1 -0.1)">
       <use xlink:href="#DejaVuSans-57"/>
       <use x="98.876953" xlink:href="#DejaVuSans-4d"/>
       <use x="185.15625" xlink:href="#DejaVuSans-42"/>
      </g>
     </g>
    </g>
    <g id="xtick_2">
     <g id="line2d_2">
      <path clip-path="url(#p90bcfd826d)" d="M 221.4 143.28 
L 315.554282 88.92 
" style="fill:none;stroke:#b0b0b0;stroke-linecap:square;stroke-width:0.8;"/>
     </g>
     <g id="text_2">
      <!-- OKE -->
      <defs>
       <path d="M 39.40625 66.21875 
Q 28.65625 66.21875 22.328125 58.203125 
Q 16.015625 50.203125 16.015625 36.375 
Q 16.015625 22.609375 22.328125 14.59375 
Q 28.65625 6.59375 39.40625 6.59375 
Q 50.140625 6.59375 56.421875 14.59375 
Q 62.703125 22.609375 62.703125 36.375 
Q 62.703125 50.203125 56.421875 58.203125 
Q 50.140625 66.21875 39.40625 66.21875 
z
M 39.40625 74.21875 
Q 54.734375 74.21875 63.90625 63.9375 
Q 73.09375 53.65625 73.09375 36.375 
Q 73.09375 19.140625 63.90625 8.859375 
Q 54.734375 -1.421875 39.40625 -1.421875 
Q 24.03125 -1.421875 14.8125 8.828125 
Q 5.609375 19.09375 5.609375 36.375 
Q 5.609375 53.65625 14.8125 63.9375 
Q 24.03125 74.21875 39.40625 74.21875 
z
" id="DejaVuSans-4f"/>
       <path d="M 9.8125 72.90625 
L 19.671875 72.90625 
L 19.671875 42.09375 
L 52.390625 72.90625 
L 65.09375 72.90625 
L 28.90625 38.921875 
L 67.671875 0 
L 54.6875 0 
L 19.671875 35.109375 
L 19.671875 0 
L 9.8125 0 
z
" id="DejaVuSans-4b"/>
       <path d="M 9.8125 72.90625 
L 55.90625 72.90625 
L 55.90625 64.59375 
L 19.671875 64.59375 
L 19.671875 43.015625 
L 54.390625 43.015625 
L 54.390625 34.71875 
L 19.671875 34.71875 
L 19.671875 8.296875 
L 56.78125 8.296875 
L 56.78125 0 
L 9.8125 0 
z
" id="DejaVuSans-45"/>
      </defs>
      <g transform="translate(317.304419 84.679375)scale(0.1 -0.1)">
       <use xlink:href="#DejaVuSans-4f"/>
       <use x="78.710938" xlink:href="#DejaVuSans-4b"/>
       <use x="144.287109" xlink:href="#DejaVuSans-45"/>
      </g>
     </g>
    </g>
    <g id="xtick_3">
     <g id="line2d_3">
      <path clip-path="url(#p90bcfd826d)" d="M 221.4 143.28 
L 315.554282 197.64 
" style="fill:none;stroke:#b0b0b0;stroke-linecap:square;stroke-width:0.8;"/>
     </g>
     <g id="text_3">
      <!-- CXO -->
      <defs>
       <path d="M 64.40625 67.28125 
L 64.40625 56.890625 
Q 59.421875 61.53125 53.78125 63.8125 
Q 48.140625 66.109375 41.796875 66.109375 
Q 29.296875 66.109375 22.65625 58.46875 
Q 16.015625 50.828125 16.015625 36.375 
Q 16.015625 21.96875 22.65625 14.328125 
Q 29.296875 6.6875 41.796875 6.6875 
Q 48.140625 6.6875 53.78125 8.984375 
Q 59.421875 11.28125 64.40625 15.921875 
L 64.40625 5.609375 
Q 59.234375 2.09375 53.4375 0.328125 
Q 47.65625 -1.421875 41.21875 -1.421875 
Q 24.65625 -1.421875 15.125 8.703125 
Q 5.609375 18.84375 5.609375 36.375 
Q 5.609375 53.953125 15.125 64.078125 
Q 24.65625 74.21875 41.21875 74.21875 
Q 47.75 74.21875 53.53125 72.484375 
Q 59.328125 70.75 64.40625 67.28125 
z
" id="DejaVuSans-43"/>
       <path d="M 6.296875 72.90625 
L 16.890625 72.90625 
L 35.015625 45.796875 
L 53.21875 72.90625 
L 63.8125 72.90625 
L 40.375 37.890625 
L 65.375 0 
L 54.78125 0 
L 34.28125 31 
L 13.625 0 
L 2.984375 0 
L 29 38.921875 
z
" id="DejaVuSans-58"/>
      </defs>
      <g transform="translate(316.830981 207.399375)scale(0.1 -0.1)">
       <use xlink:href="#DejaVuSans-43"/>
       <use x="69.824219" xlink:href="#DejaVuSans-58"/>
       <use x="138.236328" xlink:href="#DejaVuSans-4f"/>
      </g>
     </g>
    </g>
    <g id="xtick_4">
     <g id="line2d_4">
      <path clip-path="url(#p90bcfd826d)" d="M 221.4 143.28 
L 221.4 252 
" style="fill:none;stroke:#b0b0b0;stroke-linecap:square;stroke-width:0.8;"/>
     </g>
     <g id="text_4">
      <!-- APC -->
      <defs>
       <path d="M 34.1875 63.1875 
L 20.796875 26.90625 
L 47.609375 26.90625 
z
M 28.609375 72.90625 
L 39.796875 72.90625 
L 67.578125 0 
L 57.328125 0 
L 50.6875 18.703125 
L 17.828125 18.703125 
L 11.1875 0 
L 0.78125 0 
z
" id="DejaVuSans-41"/>
       <path d="M 19.671875 64.796875 
L 19.671875 37.40625 
L 32.078125 37.40625 
Q 38.96875 37.40625 42.71875 40.96875 
Q 46.484375 44.53125 46.484375 51.125 
Q 46.484375 57.671875 42.71875 61.234375 
Q 38.96875 64.796875 32.078125 64.796875 
z
M 9.8125 72.90625 
L 32.078125 72.90625 
Q 44.34375 72.90625 50.609375 67.359375 
Q 56.890625 61.8125 56.890625 51.125 
Q 56.890625 40.328125 50.609375 34.8125 
Q 44.34375 29.296875 32.078125 29.296875 
L 19.671875 29.296875 
L 19.671875 0 
L 9.8125 0 
z
" id="DejaVuSans-50"/>
      </defs>
      <g transform="translate(211.473438 268.759375)scale(0.1 -0.1)">
       <use xlink:href="#DejaVuSans-41"/>
       <use x="68.408203" xlink:href="#DejaVuSans-50"/>
       <use x="128.710938" xlink:href="#DejaVuSans-43"/>
      </g>
     </g>
    </g>
    <g id="xtick_5">
     <g id="line2d_5">
      <path clip-path="url(#p90bcfd826d)" d="M 221.4 143.28 
L 127.245718 197.64 
" style="fill:none;stroke:#b0b0b0;stroke-linecap:square;stroke-width:0.8;"/>
     </g>
     <g id="text_5">
      <!-- PSX -->
      <defs>
       <path d="M 53.515625 70.515625 
L 53.515625 60.890625 
Q 47.90625 63.578125 42.921875 64.890625 
Q 37.9375 66.21875 33.296875 66.21875 
Q 25.25 66.21875 20.875 63.09375 
Q 16.5 59.96875 16.5 54.203125 
Q 16.5 49.359375 19.40625 46.890625 
Q 22.3125 44.4375 30.421875 42.921875 
L 36.375 41.703125 
Q 47.40625 39.59375 52.65625 34.296875 
Q 57.90625 29 57.90625 20.125 
Q 57.90625 9.515625 50.796875 4.046875 
Q 43.703125 -1.421875 29.984375 -1.421875 
Q 24.8125 -1.421875 18.96875 -0.25 
Q 13.140625 0.921875 6.890625 3.21875 
L 6.890625 13.375 
Q 12.890625 10.015625 18.65625 8.296875 
Q 24.421875 6.59375 29.984375 6.59375 
Q 38.421875 6.59375 43.015625 9.90625 
Q 47.609375 13.234375 47.609375 19.390625 
Q 47.609375 24.75 44.3125 27.78125 
Q 41.015625 30.8125 33.5 32.328125 
L 27.484375 33.5 
Q 16.453125 35.6875 11.515625 40.375 
Q 6.59375 45.0625 6.59375 53.421875 
Q 6.59375 63.09375 13.40625 68.65625 
Q 20.21875 74.21875 32.171875 74.21875 
Q 37.3125 74.21875 42.625 73.28125 
Q 47.953125 72.359375 53.515625 70.515625 
z
" id="DejaVuSans-53"/>
      </defs>
      <g transform="translate(105.5073 207.399375)scale(0.1 -0.1)">
       <use xlink:href="#DejaVuSans-50"/>
       <use x="60.302734" xlink:href="#DejaVuSans-53"/>
       <use x="123.779297" xlink:href="#DejaVuSans-58"/>
      </g>
     </g>
    </g>
    <g id="xtick_6">
     <g id="line2d_6">
      <path clip-path="url(#p90bcfd826d)" d="M 221.4 143.28 
L 127.245718 88.92 
" style="fill:none;stroke:#b0b0b0;stroke-linecap:square;stroke-width:0.8;"/>
     </g>
     <g id="text_6">
      <!-- COP -->
      <g transform="translate(104.679175 84.679375)scale(0.1 -0.1)">
       <use xlink:href="#DejaVuSans-43"/>
       <use x="69.824219" xlink:href="#DejaVuSans-4f"/>
       <use x="148.535156" xlink:href="#DejaVuSans-50"/>
      </g>
     </g>
    </g>
   </g>
   <g id="matplotlib.axis_2">
    <g id="ytick_1">
     <g id="line2d_7">
      <path clip-path="url(#p90bcfd826d)" d="M 221.4 88.92 
L 225.191962 89.052418 
L 228.96545 89.449028 
L 232.70208 90.107896 
L 236.383647 91.025814 
L 239.992215 92.198309 
L 243.510204 93.619669 
L 246.920474 95.282969 
L 250.206411 97.180105 
L 253.352006 99.301836 
L 256.341934 101.637824 
L 259.161629 104.176688 
L 261.797353 106.90606 
L 264.236265 109.812642 
L 266.466482 112.882274 
L 268.477141 116.1 
L 270.258444 119.450144 
L 271.801714 122.916386 
L 273.099432 126.481836 
L 274.145276 130.129126 
L 274.934149 133.840485 
L 275.46221 137.597833 
L 275.726885 141.382863 
L 275.726885 145.177137 
L 275.46221 148.962167 
L 274.934149 152.719515 
L 274.145276 156.430874 
L 273.099432 160.078164 
L 271.801714 163.643614 
L 270.258444 167.109856 
L 268.477141 170.46 
L 266.466482 173.677726 
L 264.236265 176.747358 
L 261.797353 179.65394 
L 259.161629 182.383312 
L 256.341934 184.922176 
L 253.352006 187.258164 
L 250.206411 189.379895 
L 246.920474 191.277031 
L 243.510204 192.940331 
L 239.992215 194.361691 
L 236.383647 195.534186 
L 232.70208 196.452104 
L 228.96545 197.110972 
L 225.191962 197.507582 
L 221.4 197.64 
L 217.608038 197.507582 
L 213.83455 197.110972 
L 210.09792 196.452104 
L 206.416353 195.534186 
L 202.807785 194.361691 
L 199.289796 192.940331 
L 195.879526 191.277031 
L 192.593589 189.379895 
L 189.447994 187.258164 
L 186.458066 184.922176 
L 183.638371 182.383312 
L 181.002647 179.65394 
L 178.563735 176.747358 
L 176.333518 173.677726 
L 174.322859 170.46 
L 172.541556 167.109856 
L 170.998286 163.643614 
L 169.700568 160.078164 
L 168.654724 156.430874 
L 167.865851 152.719515 
L 167.33779 148.962167 
L 167.073115 145.177137 
L 167.073115 141.382863 
L 167.33779 137.597833 
L 167.865851 133.840485 
L 168.654724 130.129126 
L 169.700568 126.481836 
L 170.998286 122.916386 
L 172.541556 119.450144 
L 174.322859 116.1 
L 176.333518 112.882274 
L 178.563735 109.812642 
L 181.002647 106.90606 
L 183.638371 104.176688 
L 186.458066 101.637824 
L 189.447994 99.301836 
L 192.593589 97.180105 
L 195.879526 95.282969 
L 199.289796 93.619669 
L 202.807785 92.198309 
L 206.416353 91.025814 
L 210.09792 90.107896 
L 213.83455 89.449028 
L 217.608038 89.052418 
L 221.4 88.92 
L 221.4 88.92 
" style="fill:none;stroke:#b0b0b0;stroke-linecap:square;stroke-width:0.8;"/>
     </g>
     <g id="text_7">
      <!-- 3 -->
      <defs>
       <path d="M 40.578125 39.3125 
Q 47.65625 37.796875 51.625 33 
Q 55.609375 28.21875 55.609375 21.1875 
Q 55.609375 10.40625 48.1875 4.484375 
Q 40.765625 -1.421875 27.09375 -1.421875 
Q 22.515625 -1.421875 17.65625 -0.515625 
Q 12.796875 0.390625 7.625 2.203125 
L 7.625 11.71875 
Q 11.71875 9.328125 16.59375 8.109375 
Q 21.484375 6.890625 26.8125 6.890625 
Q 36.078125 6.890625 40.9375 10.546875 
Q 45.796875 14.203125 45.796875 21.1875 
Q 45.796875 27.640625 41.28125 31.265625 
Q 36.765625 34.90625 28.71875 34.90625 
L 20.21875 34.90625 
L 20.21875 43.015625 
L 29.109375 43.015625 
Q 36.375 43.015625 40.234375 45.921875 
Q 44.09375 48.828125 44.09375 54.296875 
Q 44.09375 59.90625 40.109375 62.90625 
Q 36.140625 65.921875 28.71875 65.921875 
Q 24.65625 65.921875 20.015625 65.03125 
Q 15.375 64.15625 9.8125 62.3125 
L 9.8125 71.09375 
Q 15.4375 72.65625 20.34375 73.4375 
Q 25.25 74.21875 29.59375 74.21875 
Q 40.828125 74.21875 47.359375 69.109375 
Q 53.90625 64.015625 53.90625 55.328125 
Q 53.90625 49.265625 50.4375 45.09375 
Q 46.96875 40.921875 40.578125 39.3125 
z
" id="DejaVuSans-33"/>
      </defs>
      <g style="fill:#808080;" transform="translate(221.4 87.464219)scale(0.07 -0.07)">
       <use xlink:href="#DejaVuSans-33"/>
      </g>
     </g>
    </g>
    <g id="ytick_2">
     <g id="line2d_8">
      <path clip-path="url(#p90bcfd826d)" d="M 221.4 34.56 
L 225.194273 34.626229 
L 228.983924 34.824836 
L 232.764335 35.15558 
L 236.5309 35.618056 
L 240.27903 36.211701 
L 244.004159 36.935793 
L 247.701748 37.789449 
L 251.367293 38.771628 
L 254.996328 39.881136 
L 258.58443 41.116618 
L 262.127229 42.476571 
L 265.620408 43.959338 
L 269.059711 45.563111 
L 272.440948 47.285938 
L 275.76 49.125718 
L 279.012822 51.080211 
L 282.195452 53.147035 
L 285.304013 55.323672 
L 288.334716 57.607471 
L 291.283869 59.995648 
L 294.14788 62.485295 
L 296.923258 65.073377 
L 299.606623 67.756742 
L 302.194705 70.53212 
L 304.684352 73.396131 
L 307.072529 76.345284 
L 309.356328 79.375987 
L 311.532965 82.484548 
L 313.599789 85.667178 
L 315.554282 88.92 
L 317.394062 92.239052 
L 319.116889 95.620289 
L 320.720662 99.059592 
L 322.203429 102.552771 
L 323.563382 106.09557 
L 324.798864 109.683672 
L 325.908372 113.312707 
L 326.890551 116.978252 
L 327.744207 120.675841 
L 328.468299 124.40097 
L 329.061944 128.1491 
L 329.52442 131.915665 
L 329.855164 135.696076 
L 330.053771 139.485727 
L 330.12 143.28 
L 330.053771 147.074273 
L 329.855164 150.863924 
L 329.52442 154.644335 
L 329.061944 158.4109 
L 328.468299 162.15903 
L 327.744207 165.884159 
L 326.890551 169.581748 
L 325.908372 173.247293 
L 324.798864 176.876328 
L 323.563382 180.46443 
L 322.203429 184.007229 
L 320.720662 187.500408 
L 319.116889 190.939711 
L 317.394062 194.320948 
L 315.554282 197.64 
L 313.599789 200.892822 
L 311.532965 204.075452 
L 309.356328 207.184013 
L 307.072529 210.214716 
L 304.684352 213.163869 
L 302.194705 216.02788 
L 299.606623 218.803258 
L 296.923258 221.486623 
L 294.14788 224.074705 
L 291.283869 226.564352 
L 288.334716 228.952529 
L 285.304013 231.236328 
L 282.195452 233.412965 
L 279.012822 235.479789 
L 275.76 237.434282 
L 272.440948 239.274062 
L 269.059711 240.996889 
L 265.620408 242.600662 
L 262.127229 244.083429 
L 258.58443 245.443382 
L 254.996328 246.678864 
L 251.367293 247.788372 
L 247.701748 248.770551 
L 244.004159 249.624207 
L 240.27903 250.348299 
L 236.5309 250.941944 
L 232.764335 251.40442 
L 228.983924 251.735164 
L 225.194273 251.933771 
L 221.4 252 
L 217.605727 251.933771 
L 213.816076 251.735164 
L 210.035665 251.40442 
L 206.2691 250.941944 
L 202.52097 250.348299 
L 198.795841 249.624207 
L 195.098252 248.770551 
L 191.432707 247.788372 
L 187.803672 246.678864 
L 184.21557 245.443382 
L 180.672771 244.083429 
L 177.179592 242.600662 
L 173.740289 240.996889 
L 170.359052 239.274062 
L 167.04 237.434282 
L 163.787178 235.479789 
L 160.604548 233.412965 
L 157.495987 231.236328 
L 154.465284 228.952529 
L 151.516131 226.564352 
L 148.65212 224.074705 
L 145.876742 221.486623 
L 143.193377 218.803258 
L 140.605295 216.02788 
L 138.115648 213.163869 
L 135.727471 210.214716 
L 133.443672 207.184013 
L 131.267035 204.075452 
L 129.200211 200.892822 
L 127.245718 197.64 
L 125.405938 194.320948 
L 123.683111 190.939711 
L 122.079338 187.500408 
L 120.596571 184.007229 
L 119.236618 180.46443 
L 118.001136 176.876328 
L 116.891628 173.247293 
L 115.909449 169.581748 
L 115.055793 165.884159 
L 114.331701 162.15903 
L 113.738056 158.4109 
L 113.27558 154.644335 
L 112.944836 150.863924 
L 112.746229 147.074273 
L 112.68 143.28 
L 112.746229 139.485727 
L 112.944836 135.696076 
L 113.27558 131.915665 
L 113.738056 128.1491 
L 114.331701 124.40097 
L 115.055793 120.675841 
L 115.909449 116.978252 
L 116.891628 113.312707 
L 118.001136 109.683672 
L 119.236618 106.09557 
L 120.596571 102.552771 
L 122.079338 99.059592 
L 123.683111 95.620289 
L 125.405938 92.239052 
L 127.245718 88.92 
L 129.200211 85.667178 
L 131.267035 82.484548 
L 133.443672 79.375987 
L 135.727471 76.345284 
L 138.115648 73.396131 
L 140.605295 70.53212 
L 143.193377 67.756742 
L 145.876742 65.073377 
L 148.65212 62.485295 
L 151.516131 59.995648 
L 154.465284 57.607471 
L 157.495987 55.323672 
L 160.604548 53.147035 
L 163.787178 51.080211 
L 167.04 49.125718 
L 170.359052 47.285938 
L 173.740289 45.563111 
L 177.179592 43.959338 
L 180.672771 42.476571 
L 184.21557 41.116618 
L 187.803672 39.881136 
L 191.432707 38.771628 
L 195.098252 37.789449 
L 198.795841 36.935793 
L 202.52097 36.211701 
L 206.2691 35.618056 
L 210.035665 35.15558 
L 213.816076 34.824836 
L 217.605727 34.626229 
L 221.4 34.56 
L 221.4 34.56 
" style="fill:none;stroke:#b0b0b0;stroke-linecap:square;stroke-width:0.8;"/>
     </g>
     <g id="text_8">
      <!-- 6 -->
      <defs>
       <path d="M 33.015625 40.375 
Q 26.375 40.375 22.484375 35.828125 
Q 18.609375 31.296875 18.609375 23.390625 
Q 18.609375 15.53125 22.484375 10.953125 
Q 26.375 6.390625 33.015625 6.390625 
Q 39.65625 6.390625 43.53125 10.953125 
Q 47.40625 15.53125 47.40625 23.390625 
Q 47.40625 31.296875 43.53125 35.828125 
Q 39.65625 40.375 33.015625 40.375 
z
M 52.59375 71.296875 
L 52.59375 62.3125 
Q 48.875 64.0625 45.09375 64.984375 
Q 41.3125 65.921875 37.59375 65.921875 
Q 27.828125 65.921875 22.671875 59.328125 
Q 17.53125 52.734375 16.796875 39.40625 
Q 19.671875 43.65625 24.015625 45.921875 
Q 28.375 48.1875 33.59375 48.1875 
Q 44.578125 48.1875 50.953125 41.515625 
Q 57.328125 34.859375 57.328125 23.390625 
Q 57.328125 12.15625 50.6875 5.359375 
Q 44.046875 -1.421875 33.015625 -1.421875 
Q 20.359375 -1.421875 13.671875 8.265625 
Q 6.984375 17.96875 6.984375 36.375 
Q 6.984375 53.65625 15.1875 63.9375 
Q 23.390625 74.21875 37.203125 74.21875 
Q 40.921875 74.21875 44.703125 73.484375 
Q 48.484375 72.75 52.59375 71.296875 
z
" id="DejaVuSans-36"/>
      </defs>
      <g style="fill:#808080;" transform="translate(221.4 33.104219)scale(0.07 -0.07)">
       <use xlink:href="#DejaVuSans-36"/>
      </g>
     </g>
    </g>
   </g>
   <g id="line2d_9">
    <path clip-path="url(#p90bcfd826d)" d="M 221.4 125.16 
L 237.09238 134.22 
L 237.09238 152.34 
L 221.4 197.64 
L 158.630479 179.52 
L 127.245718 88.92 
L 221.4 125.16 
" style="fill:none;stroke:#1f77b4;stroke-linecap:square;"/>
   </g>
   <g id="line2d_10">
    <path clip-path="url(#p90bcfd826d)" d="M 221.4 125.16 
L 237.09238 134.22 
L 237.09238 152.34 
L 221.4 197.64 
L 190.015239 161.4 
L 205.70762 134.22 
L 221.4 125.16 
" style="fill:none;stroke:#ff7f0e;stroke-linecap:square;"/>
   </g>
   <g id="patch_5">
    <path d="M 221.4 34.56 
C 207.12302 34.56 192.984866 37.372254 179.794657 42.835817 
C 166.604448 48.299381 154.6187 56.308002 144.523351 66.403351 
C 134.428002 76.4987 126.419381 88.484448 120.955817 101.674657 
C 115.492254 114.864866 112.68 129.00302 112.68 143.28 
C 112.68 157.55698 115.492254 171.695134 120.955817 184.885343 
C 126.419381 198.075552 134.428002 210.0613 144.523351 220.156649 
C 154.6187 230.251998 166.604448 238.260619 179.794657 243.724183 
C 192.984866 249.187746 207.12302 252 221.4 252 
C 235.67698 252 249.815134 249.187746 263.005343 243.724183 
C 276.195552 238.260619 288.1813 230.251998 298.276649 220.156649 
C 308.371998 210.0613 316.380619 198.075552 321.844183 184.885343 
C 327.307746 171.695134 330.12 157.55698 330.12 143.28 
C 330.12 129.00302 327.307746 114.864866 321.844183 101.674657 
C 316.380619 88.484448 308.371998 76.4987 298.276649 66.403351 
C 288.1813 56.308002 276.195552 48.299381 263.005343 42.835817 
C 249.815134 37.372254 235.67698 34.56 221.4 34.56 
" style="fill:none;stroke:#000000;stroke-linecap:square;stroke-linejoin:miter;stroke-width:0.8;"/>
   </g>
   <g id="legend_1">
    <g id="patch_6">
     <path d="M 23.889625 267.61225 
L 127.424 267.61225 
Q 129.424 267.61225 129.424 265.61225 
L 129.424 237.256 
Q 129.424 235.256 127.424 235.256 
L 23.889625 235.256 
Q 21.889625 235.256 21.889625 237.256 
L 21.889625 265.61225 
Q 21.889625 267.61225 23.889625 267.61225 
z
" style="fill:#ffffff;opacity:0.8;stroke:#cccccc;stroke-linejoin:miter;"/>
    </g>
    <g id="line2d_11">
     <path d="M 25.889625 243.354438 
L 45.889625 243.354438 
" style="fill:none;stroke:#1f77b4;stroke-linecap:square;"/>
    </g>
    <g id="line2d_12"/>
    <g id="text_9">
     <!-- Vendor Rating -->
     <defs>
      <path d="M 28.609375 0 
L 0.78125 72.90625 
L 11.078125 72.90625 
L 34.1875 11.53125 
L 57.328125 72.90625 
L 67.578125 72.90625 
L 39.796875 0 
z
" id="DejaVuSans-56"/>
      <path d="M 56.203125 29.59375 
L 56.203125 25.203125 
L 14.890625 25.203125 
Q 15.484375 15.921875 20.484375 11.0625 
Q 25.484375 6.203125 34.421875 6.203125 
Q 39.59375 6.203125 44.453125 7.46875 
Q 49.3125 8.734375 54.109375 11.28125 
L 54.109375 2.78125 
Q 49.265625 0.734375 44.1875 -0.34375 
Q 39.109375 -1.421875 33.890625 -1.421875 
Q 20.796875 -1.421875 13.15625 6.1875 
Q 5.515625 13.8125 5.515625 26.8125 
Q 5.515625 40.234375 12.765625 48.109375 
Q 20.015625 56 32.328125 56 
Q 43.359375 56 49.78125 48.890625 
Q 56.203125 41.796875 56.203125 29.59375 
z
M 47.21875 32.234375 
Q 47.125 39.59375 43.09375 43.984375 
Q 39.0625 48.390625 32.421875 48.390625 
Q 24.90625 48.390625 20.390625 44.140625 
Q 15.875 39.890625 15.1875 32.171875 
z
" id="DejaVuSans-65"/>
      <path d="M 54.890625 33.015625 
L 54.890625 0 
L 45.90625 0 
L 45.90625 32.71875 
Q 45.90625 40.484375 42.875 44.328125 
Q 39.84375 48.1875 33.796875 48.1875 
Q 26.515625 48.1875 22.3125 43.546875 
Q 18.109375 38.921875 18.109375 30.90625 
L 18.109375 0 
L 9.078125 0 
L 9.078125 54.6875 
L 18.109375 54.6875 
L 18.109375 46.1875 
Q 21.34375 51.125 25.703125 53.5625 
Q 30.078125 56 35.796875 56 
Q 45.21875 56 50.046875 50.171875 
Q 54.890625 44.34375 54.890625 33.015625 
z
" id="DejaVuSans-6e"/>
      <path d="M 45.40625 46.390625 
L 45.40625 75.984375 
L 54.390625 75.984375 
L 54.390625 0 
L 45.40625 0 
L 45.40625 8.203125 
Q 42.578125 3.328125 38.25 0.953125 
Q 33.9375 -1.421875 27.875 -1.421875 
Q 17.96875 -1.421875 11.734375 6.484375 
Q 5.515625 14.40625 5.515625 27.296875 
Q 5.515625 40.1875 11.734375 48.09375 
Q 17.96875 56 27.875 56 
Q 33.9375 56 38.25 53.625 
Q 42.578125 51.265625 45.40625 46.390625 
z
M 14.796875 27.296875 
Q 14.796875 17.390625 18.875 11.75 
Q 22.953125 6.109375 30.078125 6.109375 
Q 37.203125 6.109375 41.296875 11.75 
Q 45.40625 17.390625 45.40625 27.296875 
Q 45.40625 37.203125 41.296875 42.84375 
Q 37.203125 48.484375 30.078125 48.484375 
Q 22.953125 48.484375 18.875 42.84375 
Q 14.796875 37.203125 14.796875 27.296875 
z
" id="DejaVuSans-64"/>
      <path d="M 30.609375 48.390625 
Q 23.390625 48.390625 19.1875 42.75 
Q 14.984375 37.109375 14.984375 27.296875 
Q 14.984375 17.484375 19.15625 11.84375 
Q 23.34375 6.203125 30.609375 6.203125 
Q 37.796875 6.203125 41.984375 11.859375 
Q 46.1875 17.53125 46.1875 27.296875 
Q 46.1875 37.015625 41.984375 42.703125 
Q 37.796875 48.390625 30.609375 48.390625 
z
M 30.609375 56 
Q 42.328125 56 49.015625 48.375 
Q 55.71875 40.765625 55.71875 27.296875 
Q 55.71875 13.875 49.015625 6.21875 
Q 42.328125 -1.421875 30.609375 -1.421875 
Q 18.84375 -1.421875 12.171875 6.21875 
Q 5.515625 13.875 5.515625 27.296875 
Q 5.515625 40.765625 12.171875 48.375 
Q 18.84375 56 30.609375 56 
z
" id="DejaVuSans-6f"/>
      <path d="M 41.109375 46.296875 
Q 39.59375 47.171875 37.8125 47.578125 
Q 36.03125 48 33.890625 48 
Q 26.265625 48 22.1875 43.046875 
Q 18.109375 38.09375 18.109375 28.8125 
L 18.109375 0 
L 9.078125 0 
L 9.078125 54.6875 
L 18.109375 54.6875 
L 18.109375 46.1875 
Q 20.953125 51.171875 25.484375 53.578125 
Q 30.03125 56 36.53125 56 
Q 37.453125 56 38.578125 55.875 
Q 39.703125 55.765625 41.0625 55.515625 
z
" id="DejaVuSans-72"/>
      <path id="DejaVuSans-20"/>
      <path d="M 44.390625 34.1875 
Q 47.5625 33.109375 50.5625 29.59375 
Q 53.5625 26.078125 56.59375 19.921875 
L 66.609375 0 
L 56 0 
L 46.6875 18.703125 
Q 43.0625 26.03125 39.671875 28.421875 
Q 36.28125 30.8125 30.421875 30.8125 
L 19.671875 30.8125 
L 19.671875 0 
L 9.8125 0 
L 9.8125 72.90625 
L 32.078125 72.90625 
Q 44.578125 72.90625 50.734375 67.671875 
Q 56.890625 62.453125 56.890625 51.90625 
Q 56.890625 45.015625 53.6875 40.46875 
Q 50.484375 35.9375 44.390625 34.1875 
z
M 19.671875 64.796875 
L 19.671875 38.921875 
L 32.078125 38.921875 
Q 39.203125 38.921875 42.84375 42.21875 
Q 46.484375 45.515625 46.484375 51.90625 
Q 46.484375 58.296875 42.84375 61.546875 
Q 39.203125 64.796875 32.078125 64.796875 
z
" id="DejaVuSans-52"/>
      <path d="M 34.28125 27.484375 
Q 23.390625 27.484375 19.1875 25 
Q 14.984375 22.515625 14.984375 16.5 
Q 14.984375 11.71875 18.140625 8.90625 
Q 21.296875 6.109375 26.703125 6.109375 
Q 34.1875 6.109375 38.703125 11.40625 
Q 43.21875 16.703125 43.21875 25.484375 
L 43.21875 27.484375 
z
M 52.203125 31.203125 
L 52.203125 0 
L 43.21875 0 
L 43.21875 8.296875 
Q 40.140625 3.328125 35.546875 0.953125 
Q 30.953125 -1.421875 24.3125 -1.421875 
Q 15.921875 -1.421875 10.953125 3.296875 
Q 6 8.015625 6 15.921875 
Q 6 25.140625 12.171875 29.828125 
Q 18.359375 34.515625 30.609375 34.515625 
L 43.21875 34.515625 
L 43.21875 35.40625 
Q 43.21875 41.609375 39.140625 45 
Q 35.0625 48.390625 27.6875 48.390625 
Q 23 48.390625 18.546875 47.265625 
Q 14.109375 46.140625 10.015625 43.890625 
L 10.015625 52.203125 
Q 14.9375 54.109375 19.578125 55.046875 
Q 24.21875 56 28.609375 56 
Q 40.484375 56 46.34375 49.84375 
Q 52.203125 43.703125 52.203125 31.203125 
z
" id="DejaVuSans-61"/>
      <path d="M 18.3125 70.21875 
L 18.3125 54.6875 
L 36.8125 54.6875 
L 36.8125 47.703125 
L 18.3125 47.703125 
L 18.3125 18.015625 
Q 18.3125 11.328125 20.140625 9.421875 
Q 21.96875 7.515625 27.59375 7.515625 
L 36.8125 7.515625 
L 36.8125 0 
L 27.59375 0 
Q 17.1875 0 13.234375 3.875 
Q 9.28125 7.765625 9.28125 18.015625 
L 9.28125 47.703125 
L 2.6875 47.703125 
L 2.6875 54.6875 
L 9.28125 54.6875 
L 9.28125 70.21875 
z
" id="DejaVuSans-74"/>
      <path d="M 9.421875 54.6875 
L 18.40625 54.6875 
L 18.40625 0 
L 9.421875 0 
z
M 9.421875 75.984375 
L 18.40625 75.984375 
L 18.40625 64.59375 
L 9.421875 64.59375 
z
" id="DejaVuSans-69"/>
      <path d="M 45.40625 27.984375 
Q 45.40625 37.75 41.375 43.109375 
Q 37.359375 48.484375 30.078125 48.484375 
Q 22.859375 48.484375 18.828125 43.109375 
Q 14.796875 37.75 14.796875 27.984375 
Q 14.796875 18.265625 18.828125 12.890625 
Q 22.859375 7.515625 30.078125 7.515625 
Q 37.359375 7.515625 41.375 12.890625 
Q 45.40625 18.265625 45.40625 27.984375 
z
M 54.390625 6.78125 
Q 54.390625 -7.171875 48.1875 -13.984375 
Q 42 -20.796875 29.203125 -20.796875 
Q 24.46875 -20.796875 20.265625 -20.09375 
Q 16.0625 -19.390625 12.109375 -17.921875 
L 12.109375 -9.1875 
Q 16.0625 -11.328125 19.921875 -12.34375 
Q 23.78125 -13.375 27.78125 -13.375 
Q 36.625 -13.375 41.015625 -8.765625 
Q 45.40625 -4.15625 45.40625 5.171875 
L 45.40625 9.625 
Q 42.625 4.78125 38.28125 2.390625 
Q 33.9375 0 27.875 0 
Q 17.828125 0 11.671875 7.65625 
Q 5.515625 15.328125 5.515625 27.984375 
Q 5.515625 40.671875 11.671875 48.328125 
Q 17.828125 56 27.875 56 
Q 33.9375 56 38.28125 53.609375 
Q 42.625 51.21875 45.40625 46.390625 
L 45.40625 54.6875 
L 54.390625 54.6875 
z
" id="DejaVuSans-67"/>
     </defs>
     <g transform="translate(53.889625 246.854438)scale(0.1 -0.1)">
      <use xlink:href="#DejaVuSans-56"/>
      <use x="68.298828" xlink:href="#DejaVuSans-65"/>
      <use x="129.822266" xlink:href="#DejaVuSans-6e"/>
      <use x="193.201172" xlink:href="#DejaVuSans-64"/>
      <use x="256.677734" xlink:href="#DejaVuSans-6f"/>
      <use x="317.859375" xlink:href="#DejaVuSans-72"/>
      <use x="358.972656" xlink:href="#DejaVuSans-20"/>
      <use x="390.759766" xlink:href="#DejaVuSans-52"/>
      <use x="460.210938" xlink:href="#DejaVuSans-61"/>
      <use x="521.490234" xlink:href="#DejaVuSans-74"/>
      <use x="560.699219" xlink:href="#DejaVuSans-69"/>
      <use x="588.482422" xlink:href="#DejaVuSans-6e"/>
      <use x="651.861328" xlink:href="#DejaVuSans-67"/>
     </g>
    </g>
    <g id="line2d_13">
     <path d="M 25.889625 258.032562 
L 45.889625 258.032562 
" style="fill:none;stroke:#ff7f0e;stroke-linecap:square;"/>
    </g>
    <g id="line2d_14"/>
    <g id="text_10">
     <!-- RBC Rating -->
     <g transform="translate(53.889625 261.532562)scale(0.1 -0.1)">
      <use xlink:href="#DejaVuSans-52"/>
      <use x="69.482422" xlink:href="#DejaVuSans-42"/>
      <use x="138.070312" xlink:href="#DejaVuSans-43"/>
      <use x="207.894531" xlink:href="#DejaVuSans-20"/>
      <use x="239.681641" xlink:href="#DejaVuSans-52"/>
      <use x="309.132812" xlink:href="#DejaVuSans-61"/>
      <use x="370.412109" xlink:href="#DejaVuSans-74"/>
      <use x="409.621094" xlink:href="#DejaVuSans-69"/>
      <use x="437.404297" xlink:href="#DejaVuSans-6e"/>
      <use x="500.783203" xlink:href="#DejaVuSans-67"/>
     </g>
    </g>
   </g>
  </g>
 </g>
 <defs>
  <clipPath id="p90bcfd826d">
   <path d="M 330.12 143.28 
C 330.12 129.00302 327.307746 114.864866 321.844183 101.674657 
C 316.380619 88.484448 308.371998 76.4987 298.276649 66.403351 
C 288.1813 56.308002 276.195552 48.299381 263.005343 42.835817 
C 249.815134 37.372254 235.67698 34.56 221.4 34.56 
C 207.12302 34.56 192.984866 37.372254 179.794657 42.835817 
C 166.604448 48.299381 154.6187 56.308002 144.523351 66.403351 
C 134.428002 76.4987 126.419381 88.484448 120.955817 101.674657 
C 115.492254 114.864866 112.68 129.00302 112.68 143.28 
C 112.68 157.55698 115.492254 171.695134 120.955817 184.885343 
C 126.419381 198.075552 134.428002 210.0613 144.523351 220.156649 
C 154.6187 230.251998 166.604448 238.260619 179.794657 243.724183 
C 192.984866 249.187746 207.12302 252 221.4 252 
C 235.67698 252 249.815134 249.187746 263.005343 243.724183 
C 276.195552 238.260619 288.1813 230.251998 298.276649 220.156649 
C 308.371998 210.0613 316.380619 198.075552 321.844183 184.885343 
C 327.307746 171.695134 330.12 157.55698 330.12 143.28 
M 221.4 143.28 
C 221.4 143.28 221.4 143.28 221.4 143.28 
C 221.4 143.28 221.4 143.28 221.4 143.28 
C 221.4 143.28 221.4 143.28 221.4 143.28 
C 221.4 143.28 221.4 143.28 221.4 143.28 
C 221.4 143.28 221.4 143.28 221.4 143.28 
C 221.4 143.28 221.4 143.28 221.4 143.28 
C 221.4 143.28 221.4 143.28 221.4 143.28 
C 221.4 143.28 221.4 143.28 221.4 143.28 
C 221.4 143.28 221.4 143.28 221.4 143.28 
C 221.4 143.28 221.4 143.28 221.4 143.28 
C 221.4 143.28 221.4 143.28 221.4 143.28 
C 221.4 143.28 221.4 143.28 221.4 143.28 
C 221.4 143.28 221.4 143.28 221.4 143.28 
C 221.4 143.28 221.4 143.28 221.4 143.28 
C 221.4 143.28 221.4 143.28 221.4 143.28 
C 221.4 143.28 221.4 143.28 221.4 143.28 
M 330.12 143.28 
z
"/>
  </clipPath>
 </defs>
</svg>
